<?xml version="1.0"?>
<svg width="1242" height="260" xmlns="http://www.w3.org/2000/svg" version="1.1">
 <ellipse cx="31" cy="156" rx="27" ry="18" stroke="#000000" fill="#FFFFFF"/>
 <text x="25" y="161" fill="#000000" font-family="Arial" font-size="11">ch</text>
 <ellipse cx="129" cy="156" rx="35" ry="18" stroke="#000000" fill="#FFFFFF"/>
 <text x="108" y="161" fill="#000000" font-family="Arial" font-size="11">ch/zhaw</text>
 <polyline points="58,156 60,156 63,156 65,156 68,156 71,156 73,156 76,156 79,156 81,156 84,156" stroke="#000000" fill="none"/>
 <polygon points="84,152 94,156 84,159 84,152" stroke="#000000" fill="#000000"/>
 <ellipse cx="270" cy="129" rx="70" ry="18" stroke="#000000" fill="#FFFFFF"/>
 <text x="221" y="134" fill="#000000" font-family="Arial" font-size="11">ch/zhaw/lakerouting</text>
 <polyline points="162,150 166,149 170,148 174,147 178,146 182,146 186,145 191,144 195,143 200,143 204,142" stroke="#000000" fill="none"/>
 <polygon points="203,138 214,140 205,145 203,138" stroke="#000000" fill="#000000"/>
 <polygon points="324,165 216,165 216,201 324,201 324,165" stroke="#000000" fill="#FFFFFF"/>
 <text x="223" y="188" fill="#000000" font-family="Arial" font-size="11">ch/zhaw/properties</text>
 <polyline points="162,162 166,163 170,164 174,165 178,166 183,167 187,167 192,168 196,169 201,170 205,171" stroke="#000000" fill="none"/>
 <polygon points="206,167 215,173 205,174 206,167" stroke="#000000" fill="#000000"/>
 <polygon points="567,3 403,3 403,39 567,39 567,3" stroke="#000000" fill="#FFFFFF"/>
 <text x="411" y="26" fill="#000000" font-family="Arial" font-size="11">ch/zhaw/lakerouting/datatypes</text>
 <polyline points="288,112 294,106 302,100 309,93 318,86 327,79 336,72 346,65 356,59 366,53 376,48 378,47 379,46 381,46 382,45 384,44 386,43 388,43 389,42 391,42 393,41" stroke="#000000" fill="none"/>
 <polygon points="392,37 403,37 394,44 392,37" stroke="#000000" fill="#000000"/>
 <polygon points="583,57 387,57 387,93 583,93 583,57" stroke="#000000" fill="#FFFFFF"/>
 <text x="394" y="80" fill="#000000" font-family="Arial" font-size="11">ch/zhaw/lakerouting/decisionScheme</text>
 <polyline points="320,116 325,115 331,113 336,112 342,111 348,109 353,108 359,106 365,105 371,103 376,102 378,101 381,101 383,100 386,100 389,99 391,98 394,97 397,97 399,96 402,95" stroke="#000000" fill="none"/>
 <polygon points="401,92 412,93 403,99 401,92" stroke="#000000" fill="#000000"/>
 <ellipse cx="485" cy="129" rx="108" ry="18" stroke="#000000" fill="#FFFFFF"/>
 <text x="405" y="134" fill="#000000" font-family="Arial" font-size="11">ch/zhaw/lakerouting/interpolation</text>
 <polyline points="340,129 343,129 345,129 348,129 350,129 353,129 356,129 358,129 361,129 363,129 366,129" stroke="#000000" fill="none"/>
 <polygon points="366,125 376,129 366,132 366,125" stroke="#000000" fill="#000000"/>
 <ellipse cx="485" cy="183" rx="103" ry="18" stroke="#000000" fill="#FFFFFF"/>
 <text x="409" y="188" fill="#000000" font-family="Arial" font-size="11">ch/zhaw/lakerouting/navigation</text>
 <polyline points="320,142 325,143 331,145 336,146 342,147 348,149 353,150 359,152 365,153 371,155 376,156 380,157 384,158 388,159 392,160 396,161 399,162 403,163 407,164 411,165 415,166" stroke="#000000" fill="none"/>
 <polygon points="416,162 425,168 415,169 416,162" stroke="#000000" fill="#000000"/>
 <polygon points="566,219 404,219 404,255 566,255 566,219" stroke="#000000" fill="#FFFFFF"/>
 <text x="411" y="242" fill="#000000" font-family="Arial" font-size="11">ch/zhaw/lakerouting/rendering</text>
 <polyline points="317,142 319,143 322,145 324,146 327,147 329,149 331,150 333,152 336,153 338,155 340,156 346,161 350,167 353,172 356,178 358,183 360,189 362,194 365,200 370,205 376,210 378,211 380,212 381,213 383,214 385,215 387,216 389,217 390,218 392,219 394,220" stroke="#000000" fill="none"/>
 <polygon points="396,217 403,224 393,223 396,217" stroke="#000000" fill="#000000"/>
 <polygon points="894,30 664,30 664,66 894,66 894,30" stroke="#000000" fill="#FFFFFF"/>
 <text x="672" y="53" fill="#000000" font-family="Arial" font-size="11">ch/zhaw/lakerouting/interpolation/algorithms</text>
 <polyline points="557,115 561,114 565,113 568,112 572,111 576,109 580,108 583,106 587,105 590,103 594,102 599,99 603,97 606,94 609,91 612,88 615,85 618,83 621,80 625,77 630,75 632,74 635,73 637,72 640,71 642,71 644,70 647,69 649,68 652,67 654,66" stroke="#000000" fill="none"/>
 <polygon points="653,63 664,63 655,69 653,63" stroke="#000000" fill="#000000"/>
 <ellipse cx="779" cy="102" rx="148" ry="18" stroke="#000000" fill="#FFFFFF"/>
 <text x="666" y="107" fill="#000000" font-family="Arial" font-size="11">ch/zhaw/lakerouting/interpolation/boatdiagram</text>
 <polyline points="580,120 587,119 594,119 601,118 608,118 615,117 622,116 629,116 636,115 643,115 650,114" stroke="#000000" fill="none"/>
 <polygon points="650,110 661,113 651,117 650,110" stroke="#000000" fill="#000000"/>
 <ellipse cx="779" cy="156" rx="136" ry="18" stroke="#000000" fill="#FFFFFF"/>
 <text x="676" y="161" fill="#000000" font-family="Arial" font-size="11">ch/zhaw/lakerouting/interpolation/windfield</text>
 <polyline points="580,138 587,139 595,139 602,140 610,140 618,141 626,142 633,143 641,143 649,144 657,145" stroke="#000000" fill="none"/>
 <polygon points="657,141 667,146 657,148 657,141" stroke="#000000" fill="#000000"/>
 <polygon points="1238,84 964,84 964,120 1238,120 1238,84" stroke="#000000" fill="#FFFFFF"/>
 <text x="972" y="107" fill="#000000" font-family="Arial" font-size="11">ch/zhaw/lakerouting/interpolation/boatdiagram/loader</text>
 <polyline points="928,102 930,102 933,102 935,102 938,102 941,102 943,102 946,102 949,102 951,102 954,102" stroke="#000000" fill="none"/>
 <polygon points="954,98 964,102 954,105 954,98" stroke="#000000" fill="#000000"/>
 <polygon points="1229,138 973,138 973,174 1229,174 1229,138" stroke="#000000" fill="#FFFFFF"/>
 <text x="981" y="161" fill="#000000" font-family="Arial" font-size="11">ch/zhaw/lakerouting/interpolation/windfield/loader</text>
 <polyline points="916,156 921,156 925,156 930,156 934,156 939,156 944,156 949,156 953,156 958,156 963,156" stroke="#000000" fill="none"/>
 <polygon points="963,152 973,156 963,159 963,152" stroke="#000000" fill="#000000"/>
 <polygon points="879,192 679,192 679,228 879,228 879,192" stroke="#000000" fill="#FFFFFF"/>
 <text x="687" y="215" fill="#000000" font-family="Arial" font-size="11">ch/zhaw/lakerouting/navigation/speed</text>
 <polyline points="576,191 585,192 594,193 603,194 613,195 622,196 632,196 641,197 650,198 660,199 669,200" stroke="#000000" fill="none"/>
 <polygon points="669,196 679,201 669,203 669,196" stroke="#000000" fill="#000000"/>
</svg>
