<?xml version="1.0"?>
<svg width="2738" height="886" xmlns="http://www.w3.org/2000/svg" version="1.1">
 <polygon points="24,873 2714,873 2726,861 2726,23 2714,11 24,11 12,23 12,861 24,873" stroke="#FFFFE0" fill="#FFFFE0"/>
 <polyline points="2714,873 2716,873 2718,872 2719,872 2721,871 2722,869 2724,868 2725,866 2725,865 2726,863 2726,861" stroke="#FFFFE0" fill="none"/>
 <polyline points="2726,23 2726,21 2725,19 2725,18 2724,16 2722,15 2721,13 2719,12 2718,12 2716,11 2714,11" stroke="#FFFFE0" fill="none"/>
 <polyline points="24,11 22,11 20,12 19,12 17,13 16,15 14,16 13,18 13,19 12,21 12,23" stroke="#FFFFE0" fill="none"/>
 <polyline points="12,861 12,863 13,865 13,866 14,868 16,869 17,871 19,872 20,872 22,873 24,873" stroke="#FFFFE0" fill="none"/>
 <polyline points="24,873 2714,873" stroke="#000000" fill="none"/>
 <polyline points="2714,873 2716,873 2718,872 2719,872 2721,871 2722,869 2724,868 2725,866 2725,865 2726,863 2726,861" stroke="#000000" fill="none"/>
 <polyline points="2726,861 2726,23" stroke="#000000" fill="none"/>
 <polyline points="2726,23 2726,21 2725,19 2725,18 2724,16 2722,15 2721,13 2719,12 2718,12 2716,11 2714,11" stroke="#000000" fill="none"/>
 <polyline points="2714,11 24,11" stroke="#000000" fill="none"/>
 <polyline points="24,11 22,11 20,12 19,12 17,13 16,15 14,16 13,18 13,19 12,21 12,23" stroke="#000000" fill="none"/>
 <polyline points="12,23 12,861" stroke="#000000" fill="none"/>
 <polyline points="12,861 12,863 13,865 13,866 14,868 16,869 17,871 19,872 20,872 22,873 24,873" stroke="#000000" fill="none"/>
 <text x="1347" y="27" fill="#000000" font-family="Arial" font-size="12">ch/zhaw</text>
 <polygon points="32,857 2706,857 2718,845 2718,139 2706,127 32,127 20,139 20,845 32,857" stroke="#F0FFF0" fill="#F0FFF0"/>
 <polyline points="2706,857 2708,857 2710,856 2711,856 2713,855 2714,853 2716,852 2717,850 2717,849 2718,847 2718,845" stroke="#F0FFF0" fill="none"/>
 <polyline points="2718,139 2718,137 2717,135 2717,134 2716,132 2714,131 2713,129 2711,128 2710,128 2708,127 2706,127" stroke="#F0FFF0" fill="none"/>
 <polyline points="32,127 30,127 28,128 27,128 25,129 24,131 22,132 21,134 21,135 20,137 20,139" stroke="#F0FFF0" fill="none"/>
 <polyline points="20,845 20,847 21,849 21,850 22,852 24,853 25,855 27,856 28,856 30,857 32,857" stroke="#F0FFF0" fill="none"/>
 <polyline points="32,857 2706,857" stroke="#000000" fill="none"/>
 <polyline points="2706,857 2708,857 2710,856 2711,856 2713,855 2714,853 2716,852 2717,850 2717,849 2718,847 2718,845" stroke="#000000" fill="none"/>
 <polyline points="2718,845 2718,139" stroke="#000000" fill="none"/>
 <polyline points="2718,139 2718,137 2717,135 2717,134 2716,132 2714,131 2713,129 2711,128 2710,128 2708,127 2706,127" stroke="#000000" fill="none"/>
 <polyline points="2706,127 32,127" stroke="#000000" fill="none"/>
 <polyline points="32,127 30,127 28,128 27,128 25,129 24,131 22,132 21,134 21,135 20,137 20,139" stroke="#000000" fill="none"/>
 <polyline points="20,139 20,845" stroke="#000000" fill="none"/>
 <polyline points="20,845 20,847 21,849 21,850 22,852 24,853 25,855 27,856 28,856 30,857 32,857" stroke="#000000" fill="none"/>
 <text x="1316" y="143" fill="#000000" font-family="Arial" font-size="12">ch/zhaw/lakerouting</text>
 <polygon points="794,689 2698,689 2710,677 2710,293 2698,281 794,281 782,293 782,677 794,689" stroke="#DFFFFF" fill="#DFFFFF"/>
 <polyline points="2698,689 2700,689 2702,688 2703,688 2705,687 2706,685 2708,684 2709,682 2709,681 2710,679 2710,677" stroke="#DFFFFF" fill="none"/>
 <polyline points="2710,293 2710,291 2709,289 2709,288 2708,286 2706,285 2705,283 2703,282 2702,282 2700,281 2698,281" stroke="#DFFFFF" fill="none"/>
 <polyline points="794,281 792,281 790,282 789,282 787,283 786,285 784,286 783,288 783,289 782,291 782,293" stroke="#DFFFFF" fill="none"/>
 <polyline points="782,677 782,679 783,681 783,682 784,684 786,685 787,687 789,688 790,688 792,689 794,689" stroke="#DFFFFF" fill="none"/>
 <polyline points="794,689 2698,689" stroke="#000000" fill="none"/>
 <polyline points="2698,689 2700,689 2702,688 2703,688 2705,687 2706,685 2708,684 2709,682 2709,681 2710,679 2710,677" stroke="#000000" fill="none"/>
 <polyline points="2710,677 2710,293" stroke="#000000" fill="none"/>
 <polyline points="2710,293 2710,291 2709,289 2709,288 2708,286 2706,285 2705,283 2703,282 2702,282 2700,281 2698,281" stroke="#000000" fill="none"/>
 <polyline points="2698,281 794,281" stroke="#000000" fill="none"/>
 <polyline points="794,281 792,281 790,282 789,282 787,283 786,285 784,286 783,288 783,289 782,291 782,293" stroke="#000000" fill="none"/>
 <polyline points="782,293 782,677" stroke="#000000" fill="none"/>
 <polyline points="782,677 782,679 783,681 783,682 784,684 786,685 787,687 789,688 790,688 792,689 794,689" stroke="#000000" fill="none"/>
 <text x="1658" y="297" fill="#000000" font-family="Arial" font-size="12">ch/zhaw/lakerouting/interpolation</text>
 <polygon points="802,421 2234,421 2246,409 2246,323 2234,311 802,311 790,323 790,409 802,421" stroke="#FFE5E2" fill="#FFE5E2"/>
 <polyline points="2234,421 2236,421 2238,420 2239,420 2241,419 2242,417 2244,416 2245,414 2245,413 2246,411 2246,409" stroke="#FFE5E2" fill="none"/>
 <polyline points="2246,323 2246,321 2245,319 2245,318 2244,316 2242,315 2241,313 2239,312 2238,312 2236,311 2234,311" stroke="#FFE5E2" fill="none"/>
 <polyline points="802,311 800,311 798,312 797,312 795,313 794,315 792,316 791,318 791,319 790,321 790,323" stroke="#FFE5E2" fill="none"/>
 <polyline points="790,409 790,411 791,413 791,414 792,416 794,417 795,419 797,420 798,420 800,421 802,421" stroke="#FFE5E2" fill="none"/>
 <polyline points="802,421 2234,421" stroke="#000000" fill="none"/>
 <polyline points="2234,421 2236,421 2238,420 2239,420 2241,419 2242,417 2244,416 2245,414 2245,413 2246,411 2246,409" stroke="#000000" fill="none"/>
 <polyline points="2246,409 2246,323" stroke="#000000" fill="none"/>
 <polyline points="2246,323 2246,321 2245,319 2245,318 2244,316 2242,315 2241,313 2239,312 2238,312 2236,311 2234,311" stroke="#000000" fill="none"/>
 <polyline points="2234,311 802,311" stroke="#000000" fill="none"/>
 <polyline points="802,311 800,311 798,312 797,312 795,313 794,315 792,316 791,318 791,319 790,321 790,323" stroke="#000000" fill="none"/>
 <polyline points="790,323 790,409" stroke="#000000" fill="none"/>
 <polyline points="790,409 790,411 791,413 791,414 792,416 794,417 795,419 797,420 798,420 800,421 802,421" stroke="#000000" fill="none"/>
 <text x="1395" y="327" fill="#000000" font-family="Arial" font-size="12">ch/zhaw/lakerouting/interpolation/boatdiagram</text>
 <polygon points="1338,507 2210,507 2222,495 2222,441 2210,429 1338,429 1326,441 1326,495 1338,507" stroke="#FFE5E2" fill="#FFE5E2"/>
 <polyline points="2210,507 2212,507 2214,506 2215,506 2217,505 2218,503 2220,502 2221,500 2221,499 2222,497 2222,495" stroke="#FFE5E2" fill="none"/>
 <polyline points="2222,441 2222,439 2221,437 2221,436 2220,434 2218,433 2217,431 2215,430 2214,430 2212,429 2210,429" stroke="#FFE5E2" fill="none"/>
 <polyline points="1338,429 1336,429 1334,430 1333,430 1331,431 1330,433 1328,434 1327,436 1327,437 1326,439 1326,441" stroke="#FFE5E2" fill="none"/>
 <polyline points="1326,495 1326,497 1327,499 1327,500 1328,502 1330,503 1331,505 1333,506 1334,506 1336,507 1338,507" stroke="#FFE5E2" fill="none"/>
 <polyline points="1338,507 2210,507" stroke="#000000" fill="none"/>
 <polyline points="2210,507 2212,507 2214,506 2215,506 2217,505 2218,503 2220,502 2221,500 2221,499 2222,497 2222,495" stroke="#000000" fill="none"/>
 <polyline points="2222,495 2222,441" stroke="#000000" fill="none"/>
 <polyline points="2222,441 2222,439 2221,437 2221,436 2220,434 2218,433 2217,431 2215,430 2214,430 2212,429 2210,429" stroke="#000000" fill="none"/>
 <polyline points="2210,429 1338,429" stroke="#000000" fill="none"/>
 <polyline points="1338,429 1336,429 1334,430 1333,430 1331,431 1330,433 1328,434 1327,436 1327,437 1326,439 1326,441" stroke="#000000" fill="none"/>
 <polyline points="1326,441 1326,495" stroke="#000000" fill="none"/>
 <polyline points="1326,495 1326,497 1327,499 1327,500 1328,502 1330,503 1331,505 1333,506 1334,506 1336,507 1338,507" stroke="#000000" fill="none"/>
 <text x="1657" y="445" fill="#000000" font-family="Arial" font-size="12">ch/zhaw/lakerouting/interpolation/algorithms</text>
 <polygon points="814,673 2690,673 2702,661 2702,527 2690,515 814,515 802,527 802,661 814,673" stroke="#FFE5E2" fill="#FFE5E2"/>
 <polyline points="2690,673 2692,673 2694,672 2695,672 2697,671 2698,669 2700,668 2701,666 2701,665 2702,663 2702,661" stroke="#FFE5E2" fill="none"/>
 <polyline points="2702,527 2702,525 2701,523 2701,522 2700,520 2698,519 2697,517 2695,516 2694,516 2692,515 2690,515" stroke="#FFE5E2" fill="none"/>
 <polyline points="814,515 812,515 810,516 809,516 807,517 806,519 804,520 803,522 803,523 802,525 802,527" stroke="#FFE5E2" fill="none"/>
 <polyline points="802,661 802,663 803,665 803,666 804,668 806,669 807,671 809,672 810,672 812,673 814,673" stroke="#FFE5E2" fill="none"/>
 <polyline points="814,673 2690,673" stroke="#000000" fill="none"/>
 <polyline points="2690,673 2692,673 2694,672 2695,672 2697,671 2698,669 2700,668 2701,666 2701,665 2702,663 2702,661" stroke="#000000" fill="none"/>
 <polyline points="2702,661 2702,527" stroke="#000000" fill="none"/>
 <polyline points="2702,527 2702,525 2701,523 2701,522 2700,520 2698,519 2697,517 2695,516 2694,516 2692,515 2690,515" stroke="#000000" fill="none"/>
 <polyline points="2690,515 814,515" stroke="#000000" fill="none"/>
 <polyline points="814,515 812,515 810,516 809,516 807,517 806,519 804,520 803,522 803,523 802,525 802,527" stroke="#000000" fill="none"/>
 <polyline points="802,527 802,661" stroke="#000000" fill="none"/>
 <polyline points="802,661 802,663 803,665 803,666 804,668 806,669 807,671 809,672 810,672 812,673 814,673" stroke="#000000" fill="none"/>
 <text x="1639" y="531" fill="#000000" font-family="Arial" font-size="12">ch/zhaw/lakerouting/interpolation/windfield</text>
 <polygon points="1282,625 2210,625 2222,613 2222,557 2210,545 1282,545 1270,557 1270,613 1282,625" stroke="#FFFFE0" fill="#FFFFE0"/>
 <polyline points="2210,625 2212,625 2214,624 2215,624 2217,623 2218,621 2220,620 2221,618 2221,617 2222,615 2222,613" stroke="#FFFFE0" fill="none"/>
 <polyline points="2222,557 2222,555 2221,553 2221,552 2220,550 2218,549 2217,547 2215,546 2214,546 2212,545 2210,545" stroke="#FFFFE0" fill="none"/>
 <polyline points="1282,545 1280,545 1278,546 1277,546 1275,547 1274,549 1272,550 1271,552 1271,553 1270,555 1270,557" stroke="#FFFFE0" fill="none"/>
 <polyline points="1270,613 1270,615 1271,617 1271,618 1272,620 1274,621 1275,623 1277,624 1278,624 1280,625 1282,625" stroke="#FFFFE0" fill="none"/>
 <polyline points="1282,625 2210,625" stroke="#000000" fill="none"/>
 <polyline points="2210,625 2212,625 2214,624 2215,624 2217,623 2218,621 2220,620 2221,618 2221,617 2222,615 2222,613" stroke="#000000" fill="none"/>
 <polyline points="2222,613 2222,557" stroke="#000000" fill="none"/>
 <polyline points="2222,557 2222,555 2221,553 2221,552 2220,550 2218,549 2217,547 2215,546 2214,546 2212,545 2210,545" stroke="#000000" fill="none"/>
 <polyline points="2210,545 1282,545" stroke="#000000" fill="none"/>
 <polyline points="1282,545 1280,545 1278,546 1277,546 1275,547 1274,549 1272,550 1271,552 1271,553 1270,555 1270,557" stroke="#000000" fill="none"/>
 <polyline points="1270,557 1270,613" stroke="#000000" fill="none"/>
 <polyline points="1270,613 1270,615 1271,617 1271,618 1272,620 1274,621 1275,623 1277,624 1278,624 1280,625 1282,625" stroke="#000000" fill="none"/>
 <text x="1615" y="561" fill="#000000" font-family="Arial" font-size="12">ch/zhaw/lakerouting/interpolation/windfield/loader</text>
 <polygon points="40,763 707,763 719,751 719,697 707,685 40,685 28,697 28,751 40,763" stroke="#DFFFFF" fill="#DFFFFF"/>
 <polyline points="707,763 709,763 711,762 712,762 714,761 715,759 717,758 718,756 718,755 719,753 719,751" stroke="#DFFFFF" fill="none"/>
 <polyline points="719,697 719,695 718,693 718,692 717,690 715,689 714,687 712,686 711,686 709,685 707,685" stroke="#DFFFFF" fill="none"/>
 <polyline points="40,685 38,685 36,686 35,686 33,687 32,689 30,690 29,692 29,693 28,695 28,697" stroke="#DFFFFF" fill="none"/>
 <polyline points="28,751 28,753 29,755 29,756 30,758 32,759 33,761 35,762 36,762 38,763 40,763" stroke="#DFFFFF" fill="none"/>
 <polyline points="40,763 707,763" stroke="#000000" fill="none"/>
 <polyline points="707,763 709,763 711,762 712,762 714,761 715,759 717,758 718,756 718,755 719,753 719,751" stroke="#000000" fill="none"/>
 <polyline points="719,751 719,697" stroke="#000000" fill="none"/>
 <polyline points="719,697 719,695 718,693 718,692 717,690 715,689 714,687 712,686 711,686 709,685 707,685" stroke="#000000" fill="none"/>
 <polyline points="707,685 40,685" stroke="#000000" fill="none"/>
 <polyline points="40,685 38,685 36,686 35,686 33,687 32,689 30,690 29,692 29,693 28,695 28,697" stroke="#000000" fill="none"/>
 <polyline points="28,697 28,751" stroke="#000000" fill="none"/>
 <polyline points="28,751 28,753 29,755 29,756 30,758 32,759 33,761 35,762 36,762 38,763 40,763" stroke="#000000" fill="none"/>
 <text x="275" y="701" fill="#000000" font-family="Arial" font-size="12">ch/zhaw/lakerouting/decisionScheme</text>
 <polygon points="1379,847 2146,847 2158,835 2158,715 2146,703 1379,703 1367,715 1367,835 1379,847" stroke="#DFFFFF" fill="#DFFFFF"/>
 <polyline points="2146,847 2148,847 2150,846 2151,846 2153,845 2154,843 2156,842 2157,840 2157,839 2158,837 2158,835" stroke="#DFFFFF" fill="none"/>
 <polyline points="2158,715 2158,713 2157,711 2157,710 2156,708 2154,707 2153,705 2151,704 2150,704 2148,703 2146,703" stroke="#DFFFFF" fill="none"/>
 <polyline points="1379,703 1377,703 1375,704 1374,704 1372,705 1371,707 1369,708 1368,710 1368,711 1367,713 1367,715" stroke="#DFFFFF" fill="none"/>
 <polyline points="1367,835 1367,837 1368,839 1368,840 1369,842 1371,843 1372,845 1374,846 1375,846 1377,847 1379,847" stroke="#DFFFFF" fill="none"/>
 <polyline points="1379,847 2146,847" stroke="#000000" fill="none"/>
 <polyline points="2146,847 2148,847 2150,846 2151,846 2153,845 2154,843 2156,842 2157,840 2157,839 2158,837 2158,835" stroke="#000000" fill="none"/>
 <polyline points="2158,835 2158,715" stroke="#000000" fill="none"/>
 <polyline points="2158,715 2158,713 2157,711 2157,710 2156,708 2154,707 2153,705 2151,704 2150,704 2148,703 2146,703" stroke="#000000" fill="none"/>
 <polyline points="2146,703 1379,703" stroke="#000000" fill="none"/>
 <polyline points="1379,703 1377,703 1375,704 1374,704 1372,705 1371,707 1369,708 1368,710 1368,711 1367,713 1367,715" stroke="#000000" fill="none"/>
 <polyline points="1367,715 1367,835" stroke="#000000" fill="none"/>
 <polyline points="1367,835 1367,837 1368,839 1368,840 1369,842 1371,843 1372,845 1374,846 1375,846 1377,847 1379,847" stroke="#000000" fill="none"/>
 <text x="1682" y="719" fill="#000000" font-family="Arial" font-size="12">ch/zhaw/lakerouting/datatypes</text>
 <polygon points="426,273 1643,273 1655,261 1655,169 1643,157 426,157 414,169 414,261 426,273" stroke="#DFFFFF" fill="#DFFFFF"/>
 <polyline points="1643,273 1645,273 1647,272 1648,272 1650,271 1651,269 1653,268 1654,266 1654,265 1655,263 1655,261" stroke="#DFFFFF" fill="none"/>
 <polyline points="1655,169 1655,167 1654,165 1654,164 1653,162 1651,161 1650,159 1648,158 1647,158 1645,157 1643,157" stroke="#DFFFFF" fill="none"/>
 <polyline points="426,157 424,157 422,158 421,158 419,159 418,161 416,162 415,164 415,165 414,167 414,169" stroke="#DFFFFF" fill="none"/>
 <polyline points="414,261 414,263 415,265 415,266 416,268 418,269 419,271 421,272 422,272 424,273 426,273" stroke="#DFFFFF" fill="none"/>
 <polyline points="426,273 1643,273" stroke="#000000" fill="none"/>
 <polyline points="1643,273 1645,273 1647,272 1648,272 1650,271 1651,269 1653,268 1654,266 1654,265 1655,263 1655,261" stroke="#000000" fill="none"/>
 <polyline points="1655,261 1655,169" stroke="#000000" fill="none"/>
 <polyline points="1655,169 1655,167 1654,165 1654,164 1653,162 1651,161 1650,159 1648,158 1647,158 1645,157 1643,157" stroke="#000000" fill="none"/>
 <polyline points="1643,157 426,157" stroke="#000000" fill="none"/>
 <polyline points="426,157 424,157 422,158 421,158 419,159 418,161 416,162 415,164 415,165 414,167 414,169" stroke="#000000" fill="none"/>
 <polyline points="414,169 414,261" stroke="#000000" fill="none"/>
 <polyline points="414,261 414,263 415,265 415,266 416,268 418,269 419,271 421,272 422,272 424,273 426,273" stroke="#000000" fill="none"/>
 <text x="953" y="173" fill="#000000" font-family="Arial" font-size="12">ch/zhaw/lakerouting/navigation</text>
 <polygon points="825,265 1165,265 1177,253 1177,199 1165,187 825,187 813,199 813,253 825,265" stroke="#FFE5E2" fill="#FFE5E2"/>
 <polyline points="1165,265 1167,265 1169,264 1170,264 1172,263 1173,261 1175,260 1176,258 1176,257 1177,255 1177,253" stroke="#FFE5E2" fill="none"/>
 <polyline points="1177,199 1177,197 1176,195 1176,194 1175,192 1173,191 1172,189 1170,188 1169,188 1167,187 1165,187" stroke="#FFE5E2" fill="none"/>
 <polyline points="825,187 823,187 821,188 820,188 818,189 817,191 815,192 814,194 814,195 813,197 813,199" stroke="#FFE5E2" fill="none"/>
 <polyline points="813,253 813,255 814,257 814,258 815,260 817,261 818,263 820,264 821,264 823,265 825,265" stroke="#FFE5E2" fill="none"/>
 <polyline points="825,265 1165,265" stroke="#000000" fill="none"/>
 <polyline points="1165,265 1167,265 1169,264 1170,264 1172,263 1173,261 1175,260 1176,258 1176,257 1177,255 1177,253" stroke="#000000" fill="none"/>
 <polyline points="1177,253 1177,199" stroke="#000000" fill="none"/>
 <polyline points="1177,199 1177,197 1176,195 1176,194 1175,192 1173,191 1172,189 1170,188 1169,188 1167,187 1165,187" stroke="#000000" fill="none"/>
 <polyline points="1165,187 825,187" stroke="#000000" fill="none"/>
 <polyline points="825,187 823,187 821,188 820,188 818,189 817,191 815,192 814,194 814,195 813,197 813,199" stroke="#000000" fill="none"/>
 <polyline points="813,199 813,253" stroke="#000000" fill="none"/>
 <polyline points="813,253 813,255 814,257 814,258 815,260 817,261 818,263 820,264 821,264 823,265 825,265" stroke="#000000" fill="none"/>
 <text x="895" y="203" fill="#000000" font-family="Arial" font-size="12">ch/zhaw/lakerouting/navigation/speed</text>
 <polygon points="441,849 1132,849 1144,837 1144,783 1132,771 441,771 429,783 429,837 441,849" stroke="#DFFFFF" fill="#DFFFFF"/>
 <polyline points="1132,849 1134,849 1136,848 1137,848 1139,847 1140,845 1142,844 1143,842 1143,841 1144,839 1144,837" stroke="#DFFFFF" fill="none"/>
 <polyline points="1144,783 1144,781 1143,779 1143,778 1142,776 1140,775 1139,773 1137,772 1136,772 1134,771 1132,771" stroke="#DFFFFF" fill="none"/>
 <polyline points="441,771 439,771 437,772 436,772 434,773 433,775 431,776 430,778 430,779 429,781 429,783" stroke="#DFFFFF" fill="none"/>
 <polyline points="429,837 429,839 430,841 430,842 431,844 433,845 434,847 436,848 437,848 439,849 441,849" stroke="#DFFFFF" fill="none"/>
 <polyline points="441,849 1132,849" stroke="#000000" fill="none"/>
 <polyline points="1132,849 1134,849 1136,848 1137,848 1139,847 1140,845 1142,844 1143,842 1143,841 1144,839 1144,837" stroke="#000000" fill="none"/>
 <polyline points="1144,837 1144,783" stroke="#000000" fill="none"/>
 <polyline points="1144,783 1144,781 1143,779 1143,778 1142,776 1140,775 1139,773 1137,772 1136,772 1134,771 1132,771" stroke="#000000" fill="none"/>
 <polyline points="1132,771 441,771" stroke="#000000" fill="none"/>
 <polyline points="441,771 439,771 437,772 436,772 434,773 433,775 431,776 430,778 430,779 429,781 429,783" stroke="#000000" fill="none"/>
 <polyline points="429,783 429,837" stroke="#000000" fill="none"/>
 <polyline points="429,837 429,839 430,841 430,842 431,844 433,845 434,847 436,848 437,848 439,849 441,849" stroke="#000000" fill="none"/>
 <text x="707" y="787" fill="#000000" font-family="Arial" font-size="12">ch/zhaw/lakerouting/rendering</text>
 <polygon points="462,119 672,119 684,107 684,53 672,41 462,41 450,53 450,107 462,119" stroke="#F0FFF0" fill="#F0FFF0"/>
 <polyline points="672,119 674,119 676,118 677,118 679,117 680,115 682,114 683,112 683,111 684,109 684,107" stroke="#F0FFF0" fill="none"/>
 <polyline points="684,53 684,51 683,49 683,48 682,46 680,45 679,43 677,42 676,42 674,41 672,41" stroke="#F0FFF0" fill="none"/>
 <polyline points="462,41 460,41 458,42 457,42 455,43 454,45 452,46 451,48 451,49 450,51 450,53" stroke="#F0FFF0" fill="none"/>
 <polyline points="450,107 450,109 451,111 451,112 452,114 454,115 455,117 457,118 458,118 460,119 462,119" stroke="#F0FFF0" fill="none"/>
 <polyline points="462,119 672,119" stroke="#000000" fill="none"/>
 <polyline points="672,119 674,119 676,118 677,118 679,117 680,115 682,114 683,112 683,111 684,109 684,107" stroke="#000000" fill="none"/>
 <polyline points="684,107 684,53" stroke="#000000" fill="none"/>
 <polyline points="684,53 684,51 683,49 683,48 682,46 680,45 679,43 677,42 676,42 674,41 672,41" stroke="#000000" fill="none"/>
 <polyline points="672,41 462,41" stroke="#000000" fill="none"/>
 <polyline points="462,41 460,41 458,42 457,42 455,43 454,45 452,46 451,48 451,49 450,51 450,53" stroke="#000000" fill="none"/>
 <polyline points="450,53 450,107" stroke="#000000" fill="none"/>
 <polyline points="450,107 450,109 451,111 451,112 452,114 454,115 455,117 457,118 458,118 460,119 462,119" stroke="#000000" fill="none"/>
 <text x="516" y="57" fill="#000000" font-family="Arial" font-size="12">ch/zhaw/properties</text>
 <polygon points="1642,391 1346,391 1344,393 1344,413 1640,413 1642,411 1642,391" stroke="#C0C0C0" fill="#FFFFFF"/>
 <polyline points="1640,393 1344,393" stroke="#C0C0C0" fill="none"/>
 <polyline points="1640,393 1640,413" stroke="#C0C0C0" fill="none"/>
 <polyline points="1640,393 1642,391" stroke="#C0C0C0" fill="none"/>
 <text x="1352" y="407" fill="#000000" font-family="Arial" font-size="12">ch/zhaw/lakerouting/interpolation/boatdiagram/loader</text>
 <polygon points="2234,359 1794,359 1794,381 2238,381 2238,363 2234,359" stroke="#C0C0C0" fill="#FFFFFF"/>
 <polyline points="2234,359 2234,363" stroke="#C0C0C0" fill="none"/>
 <polyline points="2238,363 2234,363" stroke="#C0C0C0" fill="none"/>
 <text x="1802" y="375" fill="#000000" font-family="Arial" font-size="12">ch/zhaw/lakerouting/interpolation/boatdiagram/BoatSpeedDiagramMetadata.java</text>
 <polyline points="1642,393 1660,392 1678,391 1697,389 1716,388 1735,387 1755,386 1774,385 1793,383 1812,382 1831,381" stroke="#0000CD" fill="none"/>
 <polygon points="1831,380 1836,381 1831,383 1831,380" stroke="#0000CD" fill="#0000CD"/>
 <text x="1744" y="384" fill="#000000" font-family="Arial" font-size="12">10</text>
 <polyline points="719,724 723,725 726,727 729,728 731,730 734,732 736,734 738,736 741,738 744,739 748,741 752,742 755,743 759,744 762,744 765,745 768,745 771,745 774,745 778,745 782,745 843,748 906,751 969,752 1032,754 1094,754 1154,754 1212,754 1266,754 1316,753 1362,752" stroke="#0000CD" fill="none"/>
 <polygon points="1362,750 1367,752 1362,754 1362,750" stroke="#0000CD" fill="#0000CD"/>
 <text x="748" y="739" fill="#000000" font-family="Arial" font-size="12">55</text>
 <polyline points="719,690 722,690 725,690 727,690 730,690 733,690 736,689 739,689 742,689 745,689 748,689 751,689 754,689 757,689 760,689 763,689 765,688 768,688 771,688 774,688 777,688" stroke="#0000CD" fill="none"/>
 <polygon points="777,686 782,688 778,690 777,686" stroke="#0000CD" fill="#0000CD"/>
 <text x="560" y="688" fill="#000000" font-family="Arial" font-size="12">35</text>
 <polyline points="358,685 377,655 399,616 422,571 447,523 471,473 495,423 516,377 535,336 550,302 561,278" stroke="#0000CD" fill="none"/>
 <polygon points="560,277 563,273 563,278 560,277" stroke="#0000CD" fill="#0000CD"/>
 <text x="375" y="641" fill="#000000" font-family="Arial" font-size="12">5</text>
 <polyline points="1133,689 1139,690 1145,690 1151,691 1157,691 1163,692 1169,693 1175,693 1180,694 1186,694 1192,695 1209,697 1226,700 1243,702 1261,705 1278,707 1295,710 1312,713 1329,716 1346,719 1362,722" stroke="#0000CD" fill="none"/>
 <polygon points="1363,720 1367,723 1362,724 1363,720" stroke="#0000CD" fill="#0000CD"/>
 <text x="1228" y="698" fill="#000000" font-family="Arial" font-size="12">81</text>
 <polyline points="570,273 576,290 585,316 597,349 612,387 629,430 649,476 671,525 695,573 721,621 748,667 750,670 753,675 756,679 760,684 764,689 767,694 771,698 775,702 779,705 782,707 805,714 843,720 893,726 953,730 1019,734 1090,738 1162,741 1233,743 1301,745 1362,746" stroke="#0000CD" fill="none"/>
 <polygon points="1362,744 1367,746 1362,748 1362,744" stroke="#0000CD" fill="#0000CD"/>
 <text x="988" y="705" fill="#000000" font-family="Arial" font-size="12">42</text>
 <polyline points="568,273 572,293 578,323 587,361 600,406 618,454 639,503 665,552 697,598 734,640 778,674" stroke="#0000CD" fill="none"/>
 <polygon points="779,673 782,677 777,676 779,673" stroke="#0000CD" fill="#0000CD"/>
 <text x="748" y="653" fill="#000000" font-family="Arial" font-size="12">13</text>
 <polyline points="1081,515 1098,510 1115,505 1134,499 1152,494 1172,489 1191,484 1211,479 1231,475 1251,471 1270,468 1275,467 1280,466 1285,466 1290,465 1295,464 1300,464 1306,463 1311,463 1316,462 1321,462" stroke="#0000CD" fill="none"/>
 <polygon points="1321,460 1326,461 1321,464 1321,460" stroke="#0000CD" fill="#0000CD"/>
 <text x="1231" y="471" fill="#000000" font-family="Arial" font-size="12">7</text>
 <polyline points="1144,773 1149,773 1154,772 1158,772 1163,772 1168,771 1173,771 1178,771 1182,770 1187,770 1192,769 1202,768 1210,767 1218,766 1224,765 1231,764 1238,762 1244,761 1252,760 1260,759 1270,758 1279,757 1288,756 1297,756 1307,755 1316,754 1325,754 1335,753 1344,753 1353,752 1362,752" stroke="#0000CD" fill="none"/>
 <polygon points="1362,750 1367,752 1362,754 1362,750" stroke="#0000CD" fill="#0000CD"/>
 <text x="991" y="767" fill="#000000" font-family="Arial" font-size="12">8</text>
 <polyline points="712,771 713,771 714,770 714,770 715,770 716,769 717,769 717,769 718,768 718,768 719,767 724,763 728,759 731,755 733,751 735,747 736,742 738,738 741,733 744,728 748,723 752,719 755,715 758,712 760,709 763,706 766,704 769,701 773,699 777,697 782,695 784,694 786,694 788,693 790,693 792,692 794,691 796,691 799,690 801,690 804,689" stroke="#0000CD" fill="none"/>
 <polygon points="804,688 809,689 804,691 804,688" stroke="#0000CD" fill="#0000CD"/>
 <text x="748" y="705" fill="#000000" font-family="Arial" font-size="12">20</text>
 <polygon points="2689,575 2325,575 2325,597 2693,597 2693,579 2689,575" stroke="#C0C0C0" fill="#FFFFFF"/>
 <polyline points="2689,575 2689,579" stroke="#C0C0C0" fill="none"/>
 <polyline points="2693,579 2689,579" stroke="#C0C0C0" fill="none"/>
 <text x="2332" y="591" fill="#000000" font-family="Arial" font-size="12">ch/zhaw/lakerouting/interpolation/windfield/WindfieldMetadata.java</text>
 <polyline points="2222,583 2232,583 2242,583 2252,583 2262,583 2272,584 2282,584 2291,584 2301,584 2310,584 2319,584" stroke="#0000CD" fill="none"/>
 <polygon points="2319,582 2324,584 2319,586 2319,582" stroke="#0000CD" fill="#0000CD"/>
 <text x="2009" y="576" fill="#000000" font-family="Arial" font-size="12">11</text>
 <polygon points="2171,635 1857,635 1857,657 2175,657 2175,639 2171,635" stroke="#C0C0C0" fill="#FFFFFF"/>
 <polyline points="2171,635 2171,639" stroke="#C0C0C0" fill="none"/>
 <polyline points="2175,639 2171,639" stroke="#C0C0C0" fill="none"/>
 <text x="1864" y="651" fill="#000000" font-family="Arial" font-size="12">ch/zhaw/lakerouting/interpolation/windfield/Windfield.java</text>
 <polyline points="1747,625 1757,629 1767,633 1777,637 1787,640 1798,643 1808,645 1819,647 1829,649 1840,651 1851,652" stroke="#0000CD" fill="none"/>
 <polygon points="1852,651 1856,653 1851,654 1852,651" stroke="#0000CD" fill="#0000CD"/>
 <text x="1744" y="621" fill="#000000" font-family="Arial" font-size="12">10</text>
 <polyline points="2176,636 2183,635 2190,635 2197,634 2204,634 2211,633 2218,632 2225,631 2232,631 2239,630 2246,629 2267,626 2288,624 2310,621 2331,618 2352,614 2373,611 2392,608 2411,604 2429,601 2446,598" stroke="#0000CD" fill="none"/>
 <polygon points="2445,596 2451,597 2446,600 2445,596" stroke="#0000CD" fill="#0000CD"/>
 <text x="2274" y="622" fill="#000000" font-family="Arial" font-size="12">15</text>
 <polyline points="257,127 271,122 285,117 301,111 316,106 332,101 348,96 365,91 381,87 398,83 414,80 417,79 420,79 423,78 426,78 429,77 432,77 435,76 439,76 442,75 445,75" stroke="#0000CD" fill="none"/>
 <polygon points="445,73 450,75 445,77 445,73" stroke="#0000CD" fill="#0000CD"/>
 <text x="375" y="86" fill="#000000" font-family="Arial" font-size="12">8</text>
 <polygon points="1642,206 1340,206 1340,228 1646,228 1646,210 1642,206" stroke="#C0C0C0" fill="#FFFFFF"/>
 <polyline points="1642,206 1642,210" stroke="#C0C0C0" fill="none"/>
 <polyline points="1646,210 1642,210" stroke="#C0C0C0" fill="none"/>
 <text x="1347" y="222" fill="#000000" font-family="Arial" font-size="12">ch/zhaw/lakerouting/navigation/TrackComputation.java</text>
 <polyline points="1177,217 1192,217 1208,217 1224,217 1240,217 1256,217 1272,217 1288,217 1303,217 1319,217 1334,217" stroke="#0000CD" fill="none"/>
 <polygon points="1334,215 1339,217 1334,219 1334,215" stroke="#0000CD" fill="#0000CD"/>
 <text x="1231" y="215" fill="#000000" font-family="Arial" font-size="12">3</text>
 <polyline points="1077,421 1098,423 1120,425 1143,427 1167,429 1193,431 1218,434 1244,436 1270,438 1296,441 1321,443" stroke="#0000CD" fill="none"/>
 <polygon points="1321,441 1326,444 1321,445 1321,441" stroke="#0000CD" fill="#0000CD"/>
 <text x="1231" y="432" fill="#000000" font-family="Arial" font-size="12">3</text>
 <polygon points="2144,793 1884,793 1884,815 2148,815 2148,797 2144,793" stroke="#C0C0C0" fill="#FFFFFF"/>
 <polyline points="2144,793 2144,797" stroke="#C0C0C0" fill="none"/>
 <polyline points="2148,797 2144,797" stroke="#C0C0C0" fill="none"/>
 <text x="1891" y="809" fill="#000000" font-family="Arial" font-size="12">ch/zhaw/lakerouting/datatypes/Coordinate.java</text>
 <polygon points="1165,235 821,235 821,257 1169,257 1169,239 1165,235" stroke="#C0C0C0" fill="#FFFFFF"/>
 <polyline points="1165,235 1165,239" stroke="#C0C0C0" fill="none"/>
 <polyline points="1169,239 1165,239" stroke="#C0C0C0" fill="none"/>
 <text x="829" y="251" fill="#000000" font-family="Arial" font-size="12">ch/zhaw/lakerouting/navigation/speed/SpeedComputation.java</text>
 <polygon points="693,819 437,819 437,841 697,841 697,823 693,819" stroke="#C0C0C0" fill="#FFFFFF"/>
 <polyline points="693,819 693,823" stroke="#C0C0C0" fill="none"/>
 <polyline points="697,823 693,823" stroke="#C0C0C0" fill="none"/>
 <text x="445" y="835" fill="#000000" font-family="Arial" font-size="12">ch/zhaw/lakerouting/rendering/Rendering.java</text>
 <polygon points="1132,819 854,819 854,841 1136,841 1136,823 1132,819" stroke="#C0C0C0" fill="#FFFFFF"/>
 <polyline points="1132,819 1132,823" stroke="#C0C0C0" fill="none"/>
 <polyline points="1136,823 1132,823" stroke="#C0C0C0" fill="none"/>
 <text x="862" y="835" fill="#000000" font-family="Arial" font-size="12">ch/zhaw/lakerouting/rendering/SVGPrimitives.java</text>
 <polyline points="697,830 712,830 727,830 742,830 757,830 773,830 788,830 804,830 819,830 834,830 849,830" stroke="#0000CD" fill="none"/>
 <polygon points="849,828 854,830 849,832 849,828" stroke="#0000CD" fill="#0000CD"/>
 <text x="751" y="828" fill="#000000" font-family="Arial" font-size="12">4</text>
 <polygon points="2145,736 1883,736 1883,758 2149,758 2149,740 2145,736" stroke="#C0C0C0" fill="#FFFFFF"/>
 <polyline points="2145,736 2145,740" stroke="#C0C0C0" fill="none"/>
 <polyline points="2149,740 2145,740" stroke="#C0C0C0" fill="none"/>
 <text x="1890" y="752" fill="#000000" font-family="Arial" font-size="12">ch/zhaw/lakerouting/datatypes/WindVector.java</text>
 <polygon points="332,733 36,733 36,755 336,755 336,737 332,733" stroke="#C0C0C0" fill="#FFFFFF"/>
 <polyline points="332,733 332,737" stroke="#C0C0C0" fill="none"/>
 <polyline points="336,737 332,737" stroke="#C0C0C0" fill="none"/>
 <text x="44" y="749" fill="#000000" font-family="Arial" font-size="12">ch/zhaw/lakerouting/decisionScheme/GridFrame.java</text>
 <polygon points="707,733 423,733 423,755 711,755 711,737 707,733" stroke="#C0C0C0" fill="#FFFFFF"/>
 <polyline points="707,733 707,737" stroke="#C0C0C0" fill="none"/>
 <polyline points="711,737 707,737" stroke="#C0C0C0" fill="none"/>
 <text x="431" y="749" fill="#000000" font-family="Arial" font-size="12">ch/zhaw/lakerouting/decisionScheme/Decision.java</text>
 <polyline points="336,744 344,744 352,744 360,744 369,744 377,744 385,744 393,744 401,744 409,744 417,744" stroke="#0000CD" fill="none"/>
 <polygon points="418,742 423,744 418,746 418,742" stroke="#0000CD" fill="#0000CD"/>
 <text x="372" y="742" fill="#000000" font-family="Arial" font-size="12">27</text>
 <polygon points="1704,593 1278,593 1278,615 1708,615 1708,597 1704,593" stroke="#C0C0C0" fill="#FFFFFF"/>
 <polyline points="1704,593 1704,597" stroke="#C0C0C0" fill="none"/>
 <polyline points="1708,597 1704,597" stroke="#C0C0C0" fill="none"/>
 <text x="1286" y="609" fill="#000000" font-family="Arial" font-size="12">ch/zhaw/lakerouting/interpolation/windfield/loader/SpaceWindFieldLoader.java</text>
 <polygon points="2210,595 1818,595 1818,617 2214,617 2214,599 2210,595" stroke="#C0C0C0" fill="#FFFFFF"/>
 <polyline points="2210,595 2210,599" stroke="#C0C0C0" fill="none"/>
 <polyline points="2214,599 2210,599" stroke="#C0C0C0" fill="none"/>
 <text x="1826" y="611" fill="#000000" font-family="Arial" font-size="12">ch/zhaw/lakerouting/interpolation/windfield/loader/WindFieldLoader.java</text>
 <polyline points="1708,605 1719,605 1729,605 1739,605 1750,605 1761,605 1771,605 1782,605 1792,605 1803,605 1813,605" stroke="#0000CD" fill="none"/>
 <polygon points="1813,603 1818,605 1813,607 1813,603" stroke="#0000CD" fill="#0000CD"/>
 <text x="1747" y="603" fill="#000000" font-family="Arial" font-size="12">1</text>
 <polygon points="2209,470 1819,470 1819,492 2213,492 2213,474 2209,470" stroke="#C0C0C0" fill="#FFFFFF"/>
 <polyline points="2209,470 2209,474" stroke="#C0C0C0" fill="none"/>
 <polyline points="2213,474 2209,474" stroke="#C0C0C0" fill="none"/>
 <text x="1826" y="486" fill="#000000" font-family="Arial" font-size="12">ch/zhaw/lakerouting/interpolation/algorithms/InterpolationAlgorithm.java</text>
 <polygon points="672,89 458,89 458,111 676,111 676,93 672,89" stroke="#C0C0C0" fill="#FFFFFF"/>
 <polyline points="672,89 672,93" stroke="#C0C0C0" fill="none"/>
 <polyline points="676,93 672,93" stroke="#C0C0C0" fill="none"/>
 <text x="466" y="105" fill="#000000" font-family="Arial" font-size="12">ch/zhaw/properties/PropertyLoad.java</text>
 <polygon points="1606,767 1376,767 1376,789 1610,789 1610,771 1606,767" stroke="#C0C0C0" fill="#FFFFFF"/>
 <polyline points="1606,767 1606,771" stroke="#C0C0C0" fill="none"/>
 <polyline points="1610,771 1606,771" stroke="#C0C0C0" fill="none"/>
 <text x="1383" y="783" fill="#000000" font-family="Arial" font-size="12">ch/zhaw/lakerouting/datatypes/Node.java</text>
 <polyline points="1611,784 1635,785 1661,787 1688,788 1715,789 1743,791 1770,792 1798,793 1826,794 1852,796 1878,797" stroke="#0000CD" fill="none"/>
 <polygon points="1878,795 1883,797 1878,799 1878,795" stroke="#0000CD" fill="#0000CD"/>
 <text x="1747" y="789" fill="#000000" font-family="Arial" font-size="12">9</text>
 <polyline points="1611,771 1635,769 1661,768 1688,766 1715,765 1743,763 1770,761 1798,760 1825,758 1852,757 1877,755" stroke="#0000CD" fill="none"/>
 <polygon points="1877,753 1882,755 1877,757 1877,753" stroke="#0000CD" fill="#0000CD"/>
 <text x="1747" y="760" fill="#000000" font-family="Arial" font-size="12">9</text>
 <polygon points="1648,477 1334,477 1334,499 1652,499 1652,481 1648,477" stroke="#C0C0C0" fill="#FFFFFF"/>
 <polyline points="1648,477 1648,481" stroke="#C0C0C0" fill="none"/>
 <polyline points="1652,481 1648,481" stroke="#C0C0C0" fill="none"/>
 <text x="1342" y="493" fill="#000000" font-family="Arial" font-size="12">ch/zhaw/lakerouting/interpolation/algorithms/Bilinear.java</text>
 <polyline points="1652,486 1667,486 1683,485 1699,485 1715,485 1732,485 1748,484 1764,484 1781,484 1797,484 1813,484" stroke="#0000CD" fill="none"/>
 <polygon points="1813,482 1818,484 1813,485 1813,482" stroke="#0000CD" fill="#0000CD"/>
 <text x="1747" y="482" fill="#000000" font-family="Arial" font-size="12">1</text>
 <polygon points="1188,363 798,363 798,385 1192,385 1192,367 1188,363" stroke="#C0C0C0" fill="#FFFFFF"/>
 <polyline points="1188,363 1188,367" stroke="#C0C0C0" fill="none"/>
 <polyline points="1192,367 1188,367" stroke="#C0C0C0" fill="none"/>
 <text x="806" y="379" fill="#000000" font-family="Arial" font-size="12">ch/zhaw/lakerouting/interpolation/boatdiagram/BoatSpeedDiagram.java</text>
 <polyline points="1191,385 1206,386 1221,387 1236,388 1251,389 1266,389 1281,390 1296,391 1310,392 1325,392 1339,393" stroke="#0000CD" fill="none"/>
 <polygon points="1339,392 1344,394 1339,395 1339,392" stroke="#0000CD" fill="#0000CD"/>
 <text x="1231" y="385" fill="#000000" font-family="Arial" font-size="12">8</text>
 <polyline points="1192,370 1196,370 1199,370 1203,369 1206,369 1210,369 1214,369 1217,369 1221,369 1224,369 1228,369 1285,368 1344,368 1403,368 1462,367 1520,367 1578,367 1634,367 1688,368 1740,368 1789,368" stroke="#0000CD" fill="none"/>
 <polygon points="1789,366 1794,368 1789,370 1789,366" stroke="#0000CD" fill="#0000CD"/>
 <text x="1489" y="365" fill="#000000" font-family="Arial" font-size="12">6</text>
 <polygon points="1176,603 810,603 810,625 1180,625 1180,607 1176,603" stroke="#C0C0C0" fill="#FFFFFF"/>
 <polyline points="1176,603 1176,607" stroke="#C0C0C0" fill="none"/>
 <polyline points="1180,607 1176,607" stroke="#C0C0C0" fill="none"/>
 <text x="818" y="619" fill="#000000" font-family="Arial" font-size="12">ch/zhaw/lakerouting/interpolation/windfield/WindfieldContainer.java</text>
 <polyline points="1082,603 1098,601 1115,599 1133,597 1151,595 1170,593 1189,591 1208,589 1227,587 1246,586 1265,584" stroke="#0000CD" fill="none"/>
 <polygon points="1265,583 1270,584 1265,586 1265,583" stroke="#0000CD" fill="#0000CD"/>
 <text x="1231" y="584" fill="#000000" font-family="Arial" font-size="12">3</text>
 <polyline points="1157,625 1161,625 1164,626 1168,626 1171,627 1175,627 1178,627 1182,628 1185,628 1189,629 1192,629 1202,630 1210,632 1218,633 1224,635 1231,636 1238,638 1244,639 1252,641 1260,642 1270,643 1331,648 1392,651 1455,654 1517,656 1578,657 1638,657 1696,657 1751,656 1803,655 1851,654" stroke="#0000CD" fill="none"/>
 <polygon points="1851,652 1856,653 1851,655 1851,652" stroke="#0000CD" fill="#0000CD"/>
 <text x="1489" y="641" fill="#000000" font-family="Arial" font-size="12">7</text>
 <polygon points="708,206 422,206 422,228 712,228 712,210 708,206" stroke="#C0C0C0" fill="#FFFFFF"/>
 <polyline points="708,206 708,210" stroke="#C0C0C0" fill="none"/>
 <polyline points="712,210 708,210" stroke="#C0C0C0" fill="none"/>
 <text x="430" y="222" fill="#000000" font-family="Arial" font-size="12">ch/zhaw/lakerouting/navigation/SailingDuration.java</text>
 <polyline points="712,217 721,217 731,217 740,217 750,217 760,217 769,217 779,217 789,217 798,217 808,217" stroke="#0000CD" fill="none"/>
 <polygon points="808,215 813,217 808,219 808,215" stroke="#0000CD" fill="#0000CD"/>
 <text x="751" y="215" fill="#000000" font-family="Arial" font-size="12">6</text>
 <polygon points="1607,810 1375,810 1375,832 1611,832 1611,814 1607,810" stroke="#C0C0C0" fill="#FFFFFF"/>
 <polyline points="1607,810 1607,814" stroke="#C0C0C0" fill="none"/>
 <polyline points="1611,814 1607,814" stroke="#C0C0C0" fill="none"/>
 <text x="1383" y="826" fill="#000000" font-family="Arial" font-size="12">ch/zhaw/lakerouting/datatypes/Track.java</text>
 <polyline points="1611,822 1625,822 1639,822 1654,822 1669,822 1684,822 1699,822 1714,821 1729,821 1743,821 1758,820 1770,820 1782,819 1794,819 1806,818 1818,817 1830,817 1842,816 1854,815 1866,815 1878,814" stroke="#0000CD" fill="none"/>
 <polygon points="1878,812 1883,814 1879,816 1878,812" stroke="#0000CD" fill="#0000CD"/>
 <text x="1744" y="818" fill="#000000" font-family="Arial" font-size="12">15</text>
</svg>
