<?xml version="1.0"?>
<svg width="1321" height="1330" xmlns="http://www.w3.org/2000/svg" version="1.1">
 <polygon points="997,3 957,3 957,43 997,43 997,3" stroke="#006400" fill="#FFFFFF"/>
 <polyline points="969,3 957,15" stroke="#006400" fill="none"/>
 <polyline points="957,31 969,43" stroke="#006400" fill="none"/>
 <polyline points="985,43 997,31" stroke="#006400" fill="none"/>
 <polyline points="997,15 985,3" stroke="#006400" fill="none"/>
 <text x="965" y="28" fill="#000000" font-family="Arial" font-size="12">start</text>
 <polygon points="1106,81 848,81 848,117 1106,117 1106,81" stroke="#0000FF" fill="#FFFFFF"/>
 <text x="848" y="97" fill="#000000" font-family="Arial" font-size="12">BufferedReader br = new BufferedReader(fis)</text>
 <text x="848" y="111" fill="#000000" font-family="Arial" font-size="12">String s</text>
 <polyline points="977,43 977,46 977,49 977,51 977,54 977,57 977,60 977,63 977,65 977,68 977,71" stroke="#000000" fill="none"/>
 <polygon points="981,71 977,81 974,71 981,71" stroke="#000000" fill="#000000"/>
 <ellipse cx="977" cy="173" rx="98" ry="18" stroke="#0000FF" fill="#FFFFFF"/>
 <text x="907" y="178" fill="#000000" font-family="Arial" font-size="12">((s = br.readLine()) != null)</text>
 <polyline points="977,117 977,120 977,122 977,125 977,128 977,131 977,133 977,136 977,139 977,142 977,145" stroke="#000000" fill="none"/>
 <polygon points="981,145 977,155 974,145 981,145" stroke="#000000" fill="#000000"/>
 <polygon points="949,241 619,241 619,277 949,277 949,241" stroke="#0000FF" fill="#FFFFFF"/>
 <text x="619" y="257" fill="#000000" font-family="Arial" font-size="12">s = s.replaceAll(&quot;\\s+$&quot;, &quot;&quot;)</text>
 <text x="619" y="271" fill="#000000" font-family="Arial" font-size="12">Matcher header = HEADER_START_PATTERN.matcher(s)</text>
 <polyline points="939,190 930,194 920,198 909,203 899,208 888,213 877,218 866,223 855,228 844,232 834,237" stroke="#00FF00" fill="none"/>
 <polygon points="835,240 825,241 832,234 835,240" stroke="#00FF00" fill="#00FF00"/>
 <text x="892" y="221" fill="#000000" font-family="Arial" font-size="12">yes</text>
 <ellipse cx="873" cy="763" rx="63" ry="18" stroke="#FF0000" fill="#FFFFFF"/>
 <text x="831" y="768" fill="#000000" font-family="Arial" font-size="12">(IOException e)</text>
 <polyline points="977,191 977,197 977,203 977,209 977,216 977,223 977,230 977,238 977,245 977,252 977,259 977,259 977,260 977,263 977,269 977,279 977,294 977,314 977,341 977,376 977,419 976,458 975,493 971,524 967,552 960,578 952,604 942,631 930,660 915,691 898,727 897,728 897,729 896,730 896,731 895,732 894,733 894,734 893,735 893,736 892,737" stroke="#888888" fill="none"/>
 <polygon points="895,739 887,745 890,735 895,739" stroke="#888888" fill="#888888"/>
 <text x="976" y="467" fill="#000000" font-family="Arial" font-size="12">exception</text>
 <ellipse cx="426" cy="923" rx="29" ry="18" stroke="#FF0000" fill="#FFFFFF"/>
 <text x="410" y="928" fill="#000000" font-family="Arial" font-size="12">finally</text>
 <polyline points="879,175 802,177 711,179 610,182 505,186 401,189 303,193 215,197 142,201 91,205 65,209 55,212 46,215 37,218 29,222 22,225 16,230 11,235 7,242 5,249 4,259 4,260 4,264 4,275 4,297 4,333 4,386 4,461 4,561 4,689 4,849 5,858 7,864 12,869 17,873 23,876 31,879 39,880 47,882 56,884 65,887 86,893 113,898 145,903 181,907 218,910 256,913 293,916 328,918 360,920 387,921" stroke="#888888" fill="none"/>
 <polygon points="387,918 397,922 387,925 387,918" stroke="#888888" fill="#888888"/>
 <text x="4" y="553" fill="#000000" font-family="Arial" font-size="12">exception</text>
 <polyline points="881,177 802,181 709,186 606,192 499,199 393,207 295,216 209,226 140,236 95,247 79,259 79,260 79,264 79,275 79,297 79,333 79,386 79,461 79,561 79,689 79,849 81,852 86,857 94,861 104,866 115,871 126,875 137,879 146,883 154,885 158,887 182,893 207,899 232,903 257,908 282,911 306,914 329,916 350,918 370,920 387,921" stroke="#FF0000" fill="none"/>
 <polygon points="387,918 397,922 387,925 387,918" stroke="#FF0000" fill="#FF0000"/>
 <text x="79" y="553" fill="#000000" font-family="Arial" font-size="12">no</text>
 <polygon points="784,315 702,333 784,351 866,333 784,315" stroke="#0000FF" fill="#FFFFFF"/>
 <text x="746" y="338" fill="#000000" font-family="Arial" font-size="12">(header.find())</text>
 <polyline points="784,277 784,280 784,282 784,285 784,288 784,291 784,293 784,296 784,299 784,302 784,305" stroke="#000000" fill="none"/>
 <polygon points="788,305 784,315 781,305 788,305" stroke="#000000" fill="#000000"/>
 <polyline points="855,277 862,281 870,284 876,289 883,294 888,299 893,305 897,311 900,318 902,325 903,333 903,333 903,335 903,340 903,350 903,365 903,389 903,421 903,465 903,521 903,591 903,607 902,622 900,638 898,654 895,669 893,684 890,699 887,712 884,724 881,735" stroke="#888888" fill="none"/>
 <polygon points="884,736 878,745 878,734 884,736" stroke="#888888" fill="#888888"/>
 <text x="903" y="510" fill="#000000" font-family="Arial" font-size="12">exception</text>
 <polyline points="619,262 558,264 493,267 426,270 361,275 299,281 243,288 195,297 158,307 134,319 125,333 125,334 125,337 125,347 125,366 125,398 125,444 125,510 125,597 125,709 125,849 130,864 144,876 166,887 194,896 225,904 259,909 294,914 328,918 359,920 386,922" stroke="#888888" fill="none"/>
 <polygon points="387,918 397,922 387,925 387,918" stroke="#888888" fill="#888888"/>
 <text x="125" y="596" fill="#000000" font-family="Arial" font-size="12">exception</text>
 <polygon points="524,401 451,419 524,437 597,419 524,401" stroke="#0000FF" fill="#FFFFFF"/>
 <text x="491" y="424" fill="#000000" font-family="Arial" font-size="12">(field != null)</text>
 <polyline points="751,344 736,349 719,355 700,361 680,367 660,374 639,381 619,387 600,394 582,400 565,405" stroke="#00FF00" fill="none"/>
 <polygon points="566,409 555,409 564,402 566,409" stroke="#00FF00" fill="#00FF00"/>
 <text x="669" y="381" fill="#000000" font-family="Arial" font-size="12">yes</text>
 <polygon points="1137,573 1059,591 1137,609 1215,591 1137,573" stroke="#0000FF" fill="#FFFFFF"/>
 <text x="1101" y="596" fill="#000000" font-family="Arial" font-size="12">(!s.isEmpty())</text>
 <polyline points="808,346 811,348 813,350 816,352 819,354 821,356 824,359 826,361 829,364 831,366 833,369 843,386 849,402 852,418 853,434 853,449 854,464 856,479 860,493 868,508 881,523 892,531 906,538 924,546 944,552 966,559 989,564 1012,570 1036,574 1058,578 1079,582" stroke="#FF0000" fill="none"/>
 <polygon points="1080,579 1089,584 1079,586 1080,579" stroke="#FF0000" fill="#FF0000"/>
 <text x="854" y="467" fill="#000000" font-family="Arial" font-size="12">no</text>
 <polyline points="788,350 791,363 796,380 800,399 805,421 811,445 817,469 822,495 828,521 834,547 839,573 843,590 846,608 849,626 853,644 856,662 859,678 861,694 864,709 866,723 868,735" stroke="#888888" fill="none"/>
 <polygon points="872,734 870,745 865,736 872,734" stroke="#888888" fill="#888888"/>
 <text x="835" y="553" fill="#000000" font-family="Arial" font-size="12">exception</text>
 <polyline points="729,339 689,344 641,350 587,359 531,368 474,379 419,391 367,405 321,420 283,437 256,455 239,471 227,487 217,502 211,518 206,534 204,551 203,569 203,589 203,610 203,634 203,634 203,636 203,640 203,648 203,661 203,680 204,708 204,744 204,791 205,849 208,860 218,870 232,879 251,887 272,894 296,901 320,906 344,911 367,915 387,918" stroke="#888888" fill="none"/>
 <polygon points="388,915 397,919 387,922 388,915" stroke="#888888" fill="#888888"/>
 <text x="203" y="639" fill="#000000" font-family="Arial" font-size="12">exception</text>
 <polygon points="753,487 295,487 295,523 753,523 753,487" stroke="#0000FF" fill="#FFFFFF"/>
 <text x="303" y="510" fill="#000000" font-family="Arial" font-size="12">windfieldArray.add(Windfield.getInstance().setField(getMetadata(), convertToList()))</text>
 <polyline points="524,437 524,441 524,445 524,448 524,453 524,457 524,461 524,465 524,469 524,473 524,477" stroke="#00FF00" fill="none"/>
 <polygon points="528,477 524,487 521,477 528,477" stroke="#00FF00" fill="#00FF00"/>
 <text x="524" y="467" fill="#000000" font-family="Arial" font-size="12">yes</text>
 <polygon points="666,573 454,573 454,609 666,609 666,573" stroke="#0000FF" fill="#FFFFFF"/>
 <text x="454" y="589" fill="#000000" font-family="Arial" font-size="12">field = new ArrayList&lt;List&lt;Object&gt;&gt;()</text>
 <text x="454" y="603" fill="#000000" font-family="Arial" font-size="12">field.add(processHeader(s))</text>
 <polyline points="466,423 437,426 406,429 374,435 343,441 314,450 290,460 272,472 262,487 262,504 272,523 280,531 292,538 305,545 322,551 340,557 359,562 379,567 400,571 422,575 443,578" stroke="#FF0000" fill="none"/>
 <polygon points="444,575 454,580 443,582 444,575" stroke="#FF0000" fill="#FF0000"/>
 <text x="272" y="510" fill="#000000" font-family="Arial" font-size="12">no</text>
 <polyline points="568,426 588,430 609,434 632,439 656,444 679,450 700,457 720,464 738,471 752,479 762,487 771,499 778,510 781,521 782,532 782,544 782,555 781,567 782,580 783,594 787,609 792,624 796,638 800,650 803,660 807,671 812,681 817,691 823,702 830,714 839,727 840,728 841,729 842,731 842,732 843,733 844,734 845,735 846,736 847,737 848,738" stroke="#888888" fill="none"/>
 <polygon points="850,736 854,746 845,741 850,736" stroke="#888888" fill="#888888"/>
 <text x="787" y="596" fill="#000000" font-family="Arial" font-size="12">exception</text>
 <polyline points="462,422 442,423 421,425 399,427 377,430 355,433 335,436 316,440 299,444 285,449 274,455 259,471 250,493 246,519 247,548 250,577 255,606 261,632 266,653 270,669 272,677 272,677 272,678 272,682 272,688 272,699 272,714 272,736 272,765 272,802 272,849 274,857 280,864 289,872 300,879 314,886 328,892 344,898 360,904 375,909 389,913" stroke="#888888" fill="none"/>
 <polygon points="391,910 399,916 389,917 391,910" stroke="#888888" fill="#888888"/>
 <text x="272" y="682" fill="#000000" font-family="Arial" font-size="12">exception</text>
 <polyline points="532,523 534,527 535,531 537,534 538,539 540,543 542,547 543,551 545,555 546,559 548,563" stroke="#000000" fill="none"/>
 <polygon points="552,562 552,573 545,565 552,562" stroke="#000000" fill="#000000"/>
 <polyline points="590,523 599,526 608,530 617,534 626,539 634,544 643,549 652,554 660,560 668,566 675,573 681,580 686,586 689,592 692,599 694,605 696,611 698,618 700,625 703,633 707,641 713,652 717,662 721,671 724,680 728,688 732,696 736,703 742,711 750,719 759,727 763,730 768,733 773,736 777,739 782,741 787,744 793,746 798,748 803,749 808,751" stroke="#888888" fill="none"/>
 <polygon points="809,748 818,754 808,755 809,748" stroke="#888888" fill="#888888"/>
 <text x="707" y="639" fill="#000000" font-family="Arial" font-size="12">exception</text>
 <polyline points="481,523 473,527 465,532 457,538 450,544 443,551 438,558 433,565 429,573 427,582 426,591 426,591 426,593 426,598 426,608 426,623 426,647 426,679 426,723 426,779 426,849 426,854 426,858 426,863 426,868 426,872 426,877 426,881 426,886 426,890 426,894" stroke="#888888" fill="none"/>
 <polygon points="430,895 426,905 423,895 430,895" stroke="#888888" fill="#888888"/>
 <text x="426" y="725" fill="#000000" font-family="Arial" font-size="12">exception</text>
 <polygon points="1020,659 958,659 958,695 1020,695 1020,659" stroke="#0000FF" fill="#FFFFFF"/>
 <text x="966" y="682" fill="#000000" font-family="Arial" font-size="12">continue</text>
 <polyline points="661,609 670,611 680,613 689,614 699,616 709,618 718,620 728,622 737,623 747,625 756,627 776,631 797,635 818,640 839,644 860,648 879,653 898,657 916,661 933,665 948,668" stroke="#000000" fill="none"/>
 <polygon points="949,664 958,670 947,671 949,664" stroke="#000000" fill="#000000"/>
 <polyline points="570,609 574,616 579,624 584,632 590,641 596,651 603,660 610,669 618,678 626,687 634,695 640,700 645,705 649,708 654,712 658,714 663,717 668,719 673,722 679,724 686,727 697,731 709,735 721,739 733,742 745,745 757,748 769,750 781,752 792,754 803,756" stroke="#888888" fill="none"/>
 <polygon points="804,752 813,757 803,759 804,752" stroke="#888888" fill="#888888"/>
 <text x="634" y="682" fill="#000000" font-family="Arial" font-size="12">exception</text>
 <polyline points="551,609 549,614 547,620 544,627 542,633 540,640 538,648 536,655 535,662 534,670 534,677 534,677 534,678 534,682 534,688 534,699 534,714 534,736 534,765 534,802 534,849 533,859 530,868 525,877 518,884 511,891 502,897 492,902 483,907 473,911 463,914" stroke="#888888" fill="none"/>
 <polygon points="464,917 454,917 462,911 464,917" stroke="#888888" fill="#888888"/>
 <text x="534" y="768" fill="#000000" font-family="Arial" font-size="12">exception</text>
 <polyline points="996,659 1001,645 1006,627 1013,606 1019,583 1025,558 1031,531 1036,503 1040,475 1043,447 1044,419 1044,376 1044,341 1044,314 1044,294 1044,279 1044,269 1044,263 1044,260 1044,259 1044,259 1044,252 1042,244 1040,238 1037,231 1033,225 1029,219 1025,213 1020,207 1015,202 1010,197" stroke="#000000" fill="none"/>
 <polygon points="1007,200 1002,190 1012,194 1007,200" stroke="#000000" fill="#000000"/>
 <polyline points="968,695 964,698 961,701 957,704 953,708 949,711 945,714 941,718 936,721 932,724 928,727 926,728 924,730 922,731 920,733 918,734 916,736 914,737 912,738 910,740 908,741" stroke="#888888" fill="none"/>
 <polygon points="910,744 899,747 906,738 910,744" stroke="#888888" fill="#888888"/>
 <text x="945" y="725" fill="#000000" font-family="Arial" font-size="12">exception</text>
 <polyline points="1020,691 1021,691 1022,692 1024,692 1025,693 1026,693 1027,693 1028,694 1030,694 1031,695 1032,695 1042,698 1054,700 1065,701 1076,702 1086,704 1095,706 1101,709 1105,713 1106,719 1103,727 1084,756 1064,780 1044,798 1023,812 1000,823 976,832 949,840 921,848 889,856 855,867 829,874 796,881 756,888 713,894 668,900 621,905 576,910 534,914 496,917 465,920" stroke="#888888" fill="none"/>
 <polygon points="465,923 455,921 465,916 465,923" stroke="#888888" fill="#888888"/>
 <text x="1042" y="811" fill="#000000" font-family="Arial" font-size="12">exception</text>
 <polyline points="1128,575 1126,570 1123,564 1120,557 1118,550 1116,543 1113,536 1112,528 1110,520 1109,513 1109,505 1109,438 1109,385 1109,343 1109,312 1109,290 1109,275 1109,266 1109,261 1109,259 1109,259 1108,249 1106,240 1101,232 1096,224 1090,217 1082,211 1074,205 1065,200 1056,195 1046,191" stroke="#FF0000" fill="none"/>
 <polygon points="1045,194 1036,187 1047,188 1045,194" stroke="#FF0000" fill="#FF0000"/>
 <text x="1109" y="381" fill="#000000" font-family="Arial" font-size="12">no</text>
 <polygon points="1317,659 1169,659 1169,695 1317,695 1317,659" stroke="#0000FF" fill="#FFFFFF"/>
 <text x="1169" y="682" fill="#000000" font-family="Arial" font-size="12">field.add(processLine(s))</text>
 <polyline points="1155,605 1160,609 1165,613 1171,618 1176,623 1183,628 1189,633 1195,638 1201,643 1207,647 1213,652" stroke="#00FF00" fill="none"/>
 <polygon points="1215,650 1221,659 1211,655 1215,650" stroke="#00FF00" fill="#00FF00"/>
 <text x="1196" y="639" fill="#000000" font-family="Arial" font-size="12">yes</text>
 <polyline points="1123,606 1112,617 1099,631 1085,646 1070,661 1055,676 1041,691 1027,704 1016,715 1007,723 1001,727 995,730 989,733 983,736 977,739 970,741 964,744 957,746 951,748 944,750 938,752" stroke="#888888" fill="none"/>
 <polygon points="938,755 928,754 937,748 938,755" stroke="#888888" fill="#888888"/>
 <text x="1071" y="682" fill="#000000" font-family="Arial" font-size="12">exception</text>
 <polyline points="1140,608 1141,622 1143,640 1143,660 1143,682 1141,705 1138,728 1132,751 1124,773 1112,794 1098,813 1082,828 1068,839 1053,847 1038,852 1023,855 1007,857 990,859 972,860 952,863 930,867 878,878 825,887 771,895 717,902 666,908 616,912 571,916 530,918 494,921 465,922" stroke="#888888" fill="none"/>
 <polygon points="465,925 455,922 465,918 465,925" stroke="#888888" fill="#888888"/>
 <text x="1133" y="768" fill="#000000" font-family="Arial" font-size="12">exception</text>
 <polyline points="1243,659 1243,653 1243,647 1243,641 1243,634 1243,627 1243,620 1243,612 1243,605 1243,598 1243,591 1243,501 1243,429 1243,373 1243,331 1243,301 1243,280 1243,268 1243,262 1243,259 1243,259 1240,248 1232,238 1220,229 1204,220 1184,213 1163,206 1140,200 1116,194 1092,189 1068,185" stroke="#000000" fill="none"/>
 <polygon points="1067,188 1058,183 1068,181 1067,188" stroke="#000000" fill="#000000"/>
 <polyline points="1169,694 1156,697 1143,700 1129,703 1115,707 1100,710 1086,714 1071,717 1057,720 1042,724 1028,727 1018,729 1009,731 999,734 989,736 979,738 969,741 959,743 950,745 941,747 932,749" stroke="#888888" fill="none"/>
 <polygon points="933,753 922,752 931,746 933,753" stroke="#888888" fill="#888888"/>
 <text x="1087" y="725" fill="#000000" font-family="Arial" font-size="12">exception</text>
 <polyline points="1242,695 1240,709 1238,727 1234,746 1229,767 1222,790 1213,812 1202,833 1190,853 1174,872 1156,887 1134,893 1088,898 1022,903 943,907 856,911 764,914 675,917 592,919 520,921 466,922" stroke="#888888" fill="none"/>
 <polygon points="465,926 455,922 465,919 465,926" stroke="#888888" fill="#888888"/>
 <text x="1217" y="811" fill="#000000" font-family="Arial" font-size="12">exception</text>
 <polygon points="846,831 618,831 618,867 846,867 846,831" stroke="#0000FF" fill="#FFFFFF"/>
 <text x="618" y="847" fill="#000000" font-family="Arial" font-size="12">logger.error(&quot;IOException occured\n&quot;+e)</text>
 <text x="618" y="861" fill="#000000" font-family="Arial" font-size="12">e.printStackTrace()</text>
 <polyline points="846,779 839,783 832,787 825,792 817,797 810,802 802,807 794,811 786,816 778,821 771,825" stroke="#000000" fill="none"/>
 <polygon points="772,829 762,831 768,823 772,829" stroke="#000000" fill="#000000"/>
 <polyline points="658,867 639,872 619,876 598,881 576,887 555,892 535,897 515,901 496,906 478,910 463,914" stroke="#000000" fill="none"/>
 <polygon points="464,917 453,916 462,911 464,917" stroke="#000000" fill="#000000"/>
 <polygon points="459,979 393,979 393,1015 459,1015 459,979" stroke="#0000FF" fill="#FFFFFF"/>
 <text x="393" y="1002" fill="#000000" font-family="Arial" font-size="12">br.close()</text>
 <polyline points="426,941 426,944 426,946 426,949 426,952 426,955 426,957 426,960 426,963 426,966 426,969" stroke="#000000" fill="none"/>
 <polygon points="430,969 426,979 423,969 430,969" stroke="#000000" fill="#000000"/>
 <ellipse cx="567" cy="1083" rx="63" ry="18" stroke="#FF0000" fill="#FFFFFF"/>
 <text x="525" y="1088" fill="#000000" font-family="Arial" font-size="12">(IOException e)</text>
 <polyline points="456,1015 463,1019 470,1023 478,1028 485,1033 493,1038 501,1043 509,1047 516,1052 524,1057 531,1061" stroke="#888888" fill="none"/>
 <polygon points="533,1058 540,1066 530,1064 533,1058" stroke="#888888" fill="#888888"/>
 <text x="504" y="1045" fill="#000000" font-family="Arial" font-size="12">exception</text>
 <polygon points="701,1213 243,1213 243,1249 701,1249 701,1213" stroke="#0000FF" fill="#FFFFFF"/>
 <text x="243" y="1236" fill="#000000" font-family="Arial" font-size="12">windfieldArray.add(Windfield.getInstance().setField(getMetadata(), convertToList()))</text>
 <polyline points="423,1015 421,1026 419,1039 418,1054 417,1069 417,1086 417,1104 418,1122 421,1140 424,1158 429,1175 430,1178 432,1181 433,1185 435,1188 437,1191 439,1194 441,1197 443,1199 445,1202 447,1205" stroke="#000000" fill="none"/>
 <polygon points="449,1203 453,1213 444,1207 449,1203" stroke="#000000" fill="#000000"/>
 <polygon points="830,1139 438,1139 438,1175 830,1175 830,1139" stroke="#0000FF" fill="#FFFFFF"/>
 <text x="438" y="1155" fill="#000000" font-family="Arial" font-size="12">logger.error(&quot;Exception occured at closing of the BufferedReader\n&quot;+e)</text>
 <text x="438" y="1169" fill="#000000" font-family="Arial" font-size="12">e.printStackTrace()</text>
 <polyline points="583,1101 585,1104 588,1107 591,1110 594,1113 597,1116 600,1119 602,1122 605,1125 608,1128 611,1131" stroke="#000000" fill="none"/>
 <polygon points="613,1129 618,1139 608,1134 613,1129" stroke="#000000" fill="#000000"/>
 <polyline points="594,1175 587,1178 580,1181 573,1185 565,1188 558,1192 550,1195 543,1199 535,1202 528,1206 521,1209" stroke="#000000" fill="none"/>
 <polygon points="522,1212 512,1213 519,1206 522,1212" stroke="#000000" fill="#000000"/>
 <polygon points="490,1288 454,1288 454,1325 490,1325 490,1288" stroke="#A52A2A" fill="#FFFFFF"/>
 <polyline points="466,1288 454,1300" stroke="#A52A2A" fill="none"/>
 <polyline points="454,1313 466,1325" stroke="#A52A2A" fill="none"/>
 <polyline points="478,1325 490,1313" stroke="#A52A2A" fill="none"/>
 <polyline points="490,1300 478,1288" stroke="#A52A2A" fill="none"/>
 <text x="461" y="1311" fill="#000000" font-family="Arial" font-size="12">end</text>
 <polyline points="472,1249 472,1252 472,1255 472,1257 472,1260 472,1263 472,1266 472,1269 472,1271 472,1274 472,1277" stroke="#000000" fill="none"/>
 <polygon points="476,1277 472,1287 469,1277 476,1277" stroke="#000000" fill="#000000"/>
</svg>
