<?xml version="1.0" standalone="no"?>
<!DOCTYPE svg PUBLIC "-//W3C//DTD SVG 1.1//EN" 
  "http://www.w3.org/Graphics/SVG/1.1/DTD/svg11.dtd"><svg width="297mm" height="210mm" 
     viewBox="0 0 100 100" version="1.1"
     xmlns="http://www.w3.org/2000/svg"><defs>
    <marker id="Arrowtip"
      viewBox="0 0 10 10" refX="0" refY="5" 
      markerUnits="strokeWidth"
      markerWidth="10" markerHeight="10"
      orient="auto">
      <path d="M 0 0 L 10 5 L 0 10 z" />
    </marker>
  </defs><path d="M 2.0 2.0 L 3.251 1.59" stroke-width="0.1" stroke="Black" marker-end="url(#Arrowtip)" /><path d="M 5.0 2.0 L 6.018 1.3399999999999999" stroke-width="0.1" stroke="Black" marker-end="url(#Arrowtip)" /><path d="M 8.0 2.0 L 9.136 1.0899999999999999" stroke-width="0.1" stroke="Black" marker-end="url(#Arrowtip)" /><path d="M 11.0 2.0 L 12.464 1.05" stroke-width="0.1" stroke="Black" marker-end="url(#Arrowtip)" /><circle cx="14.0" cy="2.0" r="0.1" fill="grey"/><circle cx="17.0" cy="2.0" r="0.1" fill="grey"/><circle cx="20.0" cy="2.0" r="0.1" fill="grey"/><circle cx="23.0" cy="2.0" r="0.1" fill="grey"/><circle cx="26.0" cy="2.0" r="0.1" fill="grey"/><circle cx="29.0" cy="2.0" r="0.1" fill="grey"/><circle cx="32.0" cy="2.0" r="0.1" fill="grey"/><circle cx="35.0" cy="2.0" r="0.1" fill="grey"/><circle cx="38.0" cy="2.0" r="0.1" fill="grey"/><circle cx="41.0" cy="2.0" r="0.1" fill="grey"/><circle cx="44.0" cy="2.0" r="0.1" fill="grey"/><circle cx="47.0" cy="2.0" r="0.1" fill="grey"/><circle cx="50.0" cy="2.0" r="0.1" fill="grey"/><circle cx="53.0" cy="2.0" r="0.1" fill="grey"/><circle cx="56.0" cy="2.0" r="0.1" fill="grey"/><circle cx="59.0" cy="2.0" r="0.1" fill="grey"/><circle cx="62.0" cy="2.0" r="0.1" fill="grey"/><circle cx="65.0" cy="2.0" r="0.1" fill="grey"/><circle cx="68.0" cy="2.0" r="0.1" fill="grey"/><circle cx="71.0" cy="2.0" r="0.1" fill="grey"/><circle cx="74.0" cy="2.0" r="0.1" fill="grey"/><circle cx="77.0" cy="2.0" r="0.1" fill="grey"/><circle cx="80.0" cy="2.0" r="0.1" fill="grey"/><circle cx="83.0" cy="2.0" r="0.1" fill="grey"/><circle cx="86.0" cy="2.0" r="0.1" fill="grey"/><circle cx="89.0" cy="2.0" r="0.1" fill="grey"/><circle cx="2.0" cy="5.0" r="0.1" fill="grey"/><circle cx="5.0" cy="5.0" r="0.1" fill="grey"/><path d="M 8.0 5.0 L 8.924 4.2" stroke-width="0.1" stroke="Black" marker-end="url(#Arrowtip)" /><path d="M 11.0 5.0 L 11.524000000000001 4.2" stroke-width="0.1" stroke="Black" marker-end="url(#Arrowtip)" /><path d="M 14.0 5.0 L 14.319 4.3" stroke-width="0.1" stroke="Black" marker-end="url(#Arrowtip)" /><path d="M 17.0 5.0 L 17.843 4.4" stroke-width="0.1" stroke="Black" marker-end="url(#Arrowtip)" /><path d="M 20.0 5.0 L 21.279 4.67" stroke-width="0.1" stroke="Black" marker-end="url(#Arrowtip)" /><circle cx="23.0" cy="5.0" r="0.1" fill="grey"/><circle cx="26.0" cy="5.0" r="0.1" fill="grey"/><circle cx="29.0" cy="5.0" r="0.1" fill="grey"/><circle cx="32.0" cy="5.0" r="0.1" fill="grey"/><circle cx="35.0" cy="5.0" r="0.1" fill="grey"/><circle cx="38.0" cy="5.0" r="0.1" fill="grey"/><circle cx="41.0" cy="5.0" r="0.1" fill="grey"/><circle cx="44.0" cy="5.0" r="0.1" fill="grey"/><circle cx="47.0" cy="5.0" r="0.1" fill="grey"/><circle cx="50.0" cy="5.0" r="0.1" fill="grey"/><circle cx="53.0" cy="5.0" r="0.1" fill="grey"/><circle cx="56.0" cy="5.0" r="0.1" fill="grey"/><circle cx="59.0" cy="5.0" r="0.1" fill="grey"/><circle cx="62.0" cy="5.0" r="0.1" fill="grey"/><circle cx="65.0" cy="5.0" r="0.1" fill="grey"/><circle cx="68.0" cy="5.0" r="0.1" fill="grey"/><circle cx="71.0" cy="5.0" r="0.1" fill="grey"/><circle cx="74.0" cy="5.0" r="0.1" fill="grey"/><circle cx="77.0" cy="5.0" r="0.1" fill="grey"/><circle cx="80.0" cy="5.0" r="0.1" fill="grey"/><circle cx="83.0" cy="5.0" r="0.1" fill="grey"/><circle cx="86.0" cy="5.0" r="0.1" fill="grey"/><circle cx="89.0" cy="5.0" r="0.1" fill="grey"/><path d="M 2.0 8.0 L 4.016 7.09" stroke-width="0.1" stroke="Black" marker-end="url(#Arrowtip)" /><path d="M 5.0 8.0 L 6.803 7.0" stroke-width="0.1" stroke="Black" marker-end="url(#Arrowtip)" /><path d="M 8.0 8.0 L 8.881 7.48" stroke-width="0.1" stroke="Black" marker-end="url(#Arrowtip)" /><path d="M 11.0 8.0 L 11.115 7.65" stroke-width="0.1" stroke="Black" marker-end="url(#Arrowtip)" /><circle cx="14.0" cy="8.0" r="0.1" fill="grey"/><circle cx="17.0" cy="8.0" r="0.1" fill="grey"/><path d="M 20.0 8.0 L 19.89 8.067" stroke-width="0.1" stroke="Black" marker-end="url(#Arrowtip)" /><path d="M 23.0 8.0 L 22.98 8.572" stroke-width="0.1" stroke="Black" marker-end="url(#Arrowtip)" /><path d="M 26.0 8.0 L 26.059 8.956" stroke-width="0.1" stroke="Black" marker-end="url(#Arrowtip)" /><path d="M 29.0 8.0 L 29.257 9.451" stroke-width="0.1" stroke="Black" marker-end="url(#Arrowtip)" /><path d="M 32.0 8.0 L 32.484 9.932" stroke-width="0.1" stroke="Black" marker-end="url(#Arrowtip)" /><path d="M 35.0 8.0 L 35.552 10.086" stroke-width="0.1" stroke="Black" marker-end="url(#Arrowtip)" /><path d="M 38.0 8.0 L 38.528 10.074" stroke-width="0.1" stroke="Black" marker-end="url(#Arrowtip)" /><path d="M 41.0 8.0 L 41.513 10.004999999999999" stroke-width="0.1" stroke="Black" marker-end="url(#Arrowtip)" /><circle cx="44.0" cy="8.0" r="0.1" fill="grey"/><circle cx="47.0" cy="8.0" r="0.1" fill="grey"/><circle cx="50.0" cy="8.0" r="0.1" fill="grey"/><circle cx="53.0" cy="8.0" r="0.1" fill="grey"/><circle cx="56.0" cy="8.0" r="0.1" fill="grey"/><circle cx="59.0" cy="8.0" r="0.1" fill="grey"/><circle cx="62.0" cy="8.0" r="0.1" fill="grey"/><circle cx="65.0" cy="8.0" r="0.1" fill="grey"/><circle cx="68.0" cy="8.0" r="0.1" fill="grey"/><circle cx="71.0" cy="8.0" r="0.1" fill="grey"/><circle cx="74.0" cy="8.0" r="0.1" fill="grey"/><circle cx="77.0" cy="8.0" r="0.1" fill="grey"/><circle cx="80.0" cy="8.0" r="0.1" fill="grey"/><circle cx="83.0" cy="8.0" r="0.1" fill="grey"/><circle cx="86.0" cy="8.0" r="0.1" fill="grey"/><circle cx="89.0" cy="8.0" r="0.1" fill="grey"/><circle cx="2.0" cy="11.0" r="0.1" fill="grey"/><circle cx="5.0" cy="11.0" r="0.1" fill="grey"/><path d="M 8.0 11.0 L 8.635 10.13" stroke-width="0.1" stroke="Black" marker-end="url(#Arrowtip)" /><circle cx="11.0" cy="11.0" r="0.1" fill="grey"/><circle cx="14.0" cy="11.0" r="0.1" fill="grey"/><circle cx="17.0" cy="11.0" r="0.1" fill="grey"/><path d="M 20.0 11.0 L 19.4 11.427" stroke-width="0.1" stroke="Black" marker-end="url(#Arrowtip)" /><path d="M 23.0 11.0 L 22.47 11.858" stroke-width="0.1" stroke="Black" marker-end="url(#Arrowtip)" /><path d="M 26.0 11.0 L 25.69 12.172" stroke-width="0.1" stroke="Black" marker-end="url(#Arrowtip)" /><path d="M 29.0 11.0 L 28.82 12.488" stroke-width="0.1" stroke="Black" marker-end="url(#Arrowtip)" /><path d="M 32.0 11.0 L 31.86 12.777" stroke-width="0.1" stroke="Black" marker-end="url(#Arrowtip)" /><path d="M 35.0 11.0 L 34.74 12.941" stroke-width="0.1" stroke="Black" marker-end="url(#Arrowtip)" /><path d="M 38.0 11.0 L 37.77 12.941" stroke-width="0.1" stroke="Black" marker-end="url(#Arrowtip)" /><path d="M 41.0 11.0 L 40.94 12.877" stroke-width="0.1" stroke="Black" marker-end="url(#Arrowtip)" /><path d="M 44.0 11.0 L 44.378 12.863" stroke-width="0.1" stroke="Black" marker-end="url(#Arrowtip)" /><path d="M 47.0 11.0 L 47.777 12.832" stroke-width="0.1" stroke="Black" marker-end="url(#Arrowtip)" /><path d="M 50.0 11.0 L 51.095 12.776" stroke-width="0.1" stroke="Black" marker-end="url(#Arrowtip)" /><circle cx="53.0" cy="11.0" r="0.1" fill="grey"/><circle cx="56.0" cy="11.0" r="0.1" fill="grey"/><circle cx="59.0" cy="11.0" r="0.1" fill="grey"/><circle cx="62.0" cy="11.0" r="0.1" fill="grey"/><circle cx="65.0" cy="11.0" r="0.1" fill="grey"/><circle cx="68.0" cy="11.0" r="0.1" fill="grey"/><circle cx="71.0" cy="11.0" r="0.1" fill="grey"/><circle cx="74.0" cy="11.0" r="0.1" fill="grey"/><circle cx="77.0" cy="11.0" r="0.1" fill="grey"/><circle cx="80.0" cy="11.0" r="0.1" fill="grey"/><circle cx="83.0" cy="11.0" r="0.1" fill="grey"/><circle cx="86.0" cy="11.0" r="0.1" fill="grey"/><circle cx="89.0" cy="11.0" r="0.1" fill="grey"/><circle cx="2.0" cy="14.0" r="0.1" fill="grey"/><circle cx="5.0" cy="14.0" r="0.1" fill="grey"/><circle cx="8.0" cy="14.0" r="0.1" fill="grey"/><circle cx="11.0" cy="14.0" r="0.1" fill="grey"/><circle cx="14.0" cy="14.0" r="0.1" fill="grey"/><circle cx="17.0" cy="14.0" r="0.1" fill="grey"/><circle cx="20.0" cy="14.0" r="0.1" fill="grey"/><path d="M 23.0 14.0 L 22.27 14.233" stroke-width="0.1" stroke="Black" marker-end="url(#Arrowtip)" /><path d="M 26.0 14.0 L 25.48 14.656" stroke-width="0.1" stroke="Black" marker-end="url(#Arrowtip)" /><path d="M 29.0 14.0 L 28.61 15.023" stroke-width="0.1" stroke="Black" marker-end="url(#Arrowtip)" /><path d="M 32.0 14.0 L 31.69 15.338000000000001" stroke-width="0.1" stroke="Black" marker-end="url(#Arrowtip)" /><path d="M 35.0 14.0 L 34.69 15.547" stroke-width="0.1" stroke="Black" marker-end="url(#Arrowtip)" /><path d="M 38.0 14.0 L 37.76 15.657" stroke-width="0.1" stroke="Black" marker-end="url(#Arrowtip)" /><path d="M 41.0 14.0 L 40.9 15.716" stroke-width="0.1" stroke="Black" marker-end="url(#Arrowtip)" /><path d="M 44.0 14.0 L 44.198 15.761" stroke-width="0.1" stroke="Black" marker-end="url(#Arrowtip)" /><path d="M 47.0 14.0 L 47.556 15.777" stroke-width="0.1" stroke="Black" marker-end="url(#Arrowtip)" /><path d="M 50.0 14.0 L 50.909 15.747" stroke-width="0.1" stroke="Black" marker-end="url(#Arrowtip)" /><path d="M 53.0 14.0 L 54.153 15.592" stroke-width="0.1" stroke="Black" marker-end="url(#Arrowtip)" /><circle cx="56.0" cy="14.0" r="0.1" fill="grey"/><circle cx="59.0" cy="14.0" r="0.1" fill="grey"/><circle cx="62.0" cy="14.0" r="0.1" fill="grey"/><circle cx="65.0" cy="14.0" r="0.1" fill="grey"/><circle cx="68.0" cy="14.0" r="0.1" fill="grey"/><circle cx="71.0" cy="14.0" r="0.1" fill="grey"/><circle cx="74.0" cy="14.0" r="0.1" fill="grey"/><circle cx="77.0" cy="14.0" r="0.1" fill="grey"/><circle cx="80.0" cy="14.0" r="0.1" fill="grey"/><circle cx="83.0" cy="14.0" r="0.1" fill="grey"/><circle cx="86.0" cy="14.0" r="0.1" fill="grey"/><circle cx="89.0" cy="14.0" r="0.1" fill="grey"/><circle cx="2.0" cy="17.0" r="0.1" fill="grey"/><circle cx="5.0" cy="17.0" r="0.1" fill="grey"/><circle cx="8.0" cy="17.0" r="0.1" fill="grey"/><circle cx="11.0" cy="17.0" r="0.1" fill="grey"/><circle cx="14.0" cy="17.0" r="0.1" fill="grey"/><circle cx="17.0" cy="17.0" r="0.1" fill="grey"/><circle cx="20.0" cy="17.0" r="0.1" fill="grey"/><circle cx="23.0" cy="17.0" r="0.1" fill="grey"/><circle cx="26.0" cy="17.0" r="0.1" fill="grey"/><path d="M 29.0 17.0 L 28.17 17.257" stroke-width="0.1" stroke="Black" marker-end="url(#Arrowtip)" /><path d="M 32.0 17.0 L 31.1 17.753" stroke-width="0.1" stroke="Black" marker-end="url(#Arrowtip)" /><path d="M 35.0 17.0 L 34.15 17.927" stroke-width="0.1" stroke="Black" marker-end="url(#Arrowtip)" /><path d="M 38.0 17.0 L 37.27 18.067" stroke-width="0.1" stroke="Black" marker-end="url(#Arrowtip)" /><path d="M 41.0 17.0 L 40.48 18.191" stroke-width="0.1" stroke="Black" marker-end="url(#Arrowtip)" /><path d="M 44.0 17.0 L 43.88 18.312" stroke-width="0.1" stroke="Black" marker-end="url(#Arrowtip)" /><path d="M 47.0 17.0 L 47.288 18.415" stroke-width="0.1" stroke="Black" marker-end="url(#Arrowtip)" /><path d="M 50.0 17.0 L 50.669 18.477" stroke-width="0.1" stroke="Black" marker-end="url(#Arrowtip)" /><path d="M 53.0 17.0 L 53.937 18.411" stroke-width="0.1" stroke="Black" marker-end="url(#Arrowtip)" /><path d="M 56.0 17.0 L 57.028 18.365" stroke-width="0.1" stroke="Black" marker-end="url(#Arrowtip)" /><circle cx="59.0" cy="17.0" r="0.1" fill="grey"/><circle cx="62.0" cy="17.0" r="0.1" fill="grey"/><circle cx="65.0" cy="17.0" r="0.1" fill="grey"/><circle cx="68.0" cy="17.0" r="0.1" fill="grey"/><circle cx="71.0" cy="17.0" r="0.1" fill="grey"/><circle cx="74.0" cy="17.0" r="0.1" fill="grey"/><circle cx="77.0" cy="17.0" r="0.1" fill="grey"/><circle cx="80.0" cy="17.0" r="0.1" fill="grey"/><circle cx="83.0" cy="17.0" r="0.1" fill="grey"/><circle cx="86.0" cy="17.0" r="0.1" fill="grey"/><circle cx="89.0" cy="17.0" r="0.1" fill="grey"/><circle cx="2.0" cy="20.0" r="0.1" fill="grey"/><circle cx="5.0" cy="20.0" r="0.1" fill="grey"/><circle cx="8.0" cy="20.0" r="0.1" fill="grey"/><circle cx="11.0" cy="20.0" r="0.1" fill="grey"/><circle cx="14.0" cy="20.0" r="0.1" fill="grey"/><circle cx="17.0" cy="20.0" r="0.1" fill="grey"/><circle cx="20.0" cy="20.0" r="0.1" fill="grey"/><circle cx="23.0" cy="20.0" r="0.1" fill="grey"/><circle cx="26.0" cy="20.0" r="0.1" fill="grey"/><circle cx="29.0" cy="20.0" r="0.1" fill="grey"/><path d="M 32.0 20.0 L 30.73 20.113" stroke-width="0.1" stroke="Black" marker-end="url(#Arrowtip)" /><path d="M 35.0 20.0 L 33.73 20.485" stroke-width="0.1" stroke="Black" marker-end="url(#Arrowtip)" /><path d="M 38.0 20.0 L 36.87 20.593" stroke-width="0.1" stroke="Black" marker-end="url(#Arrowtip)" /><path d="M 41.0 20.0 L 40.13 20.573" stroke-width="0.1" stroke="Black" marker-end="url(#Arrowtip)" /><path d="M 44.0 20.0 L 43.53 20.641" stroke-width="0.1" stroke="Black" marker-end="url(#Arrowtip)" /><path d="M 47.0 20.0 L 46.98 20.694" stroke-width="0.1" stroke="Black" marker-end="url(#Arrowtip)" /><path d="M 50.0 20.0 L 50.407 20.736" stroke-width="0.1" stroke="Black" marker-end="url(#Arrowtip)" /><path d="M 53.0 20.0 L 53.707 20.762" stroke-width="0.1" stroke="Black" marker-end="url(#Arrowtip)" /><path d="M 56.0 20.0 L 56.818 20.872" stroke-width="0.1" stroke="Black" marker-end="url(#Arrowtip)" /><path d="M 59.0 20.0 L 59.844 21.034" stroke-width="0.1" stroke="Black" marker-end="url(#Arrowtip)" /><path d="M 62.0 20.0 L 62.841 21.257" stroke-width="0.1" stroke="Black" marker-end="url(#Arrowtip)" /><path d="M 65.0 20.0 L 65.838 21.326999999999998" stroke-width="0.1" stroke="Black" marker-end="url(#Arrowtip)" /><circle cx="68.0" cy="20.0" r="0.1" fill="grey"/><circle cx="71.0" cy="20.0" r="0.1" fill="grey"/><circle cx="74.0" cy="20.0" r="0.1" fill="grey"/><circle cx="77.0" cy="20.0" r="0.1" fill="grey"/><circle cx="80.0" cy="20.0" r="0.1" fill="grey"/><circle cx="83.0" cy="20.0" r="0.1" fill="grey"/><circle cx="86.0" cy="20.0" r="0.1" fill="grey"/><circle cx="89.0" cy="20.0" r="0.1" fill="grey"/><circle cx="2.0" cy="23.0" r="0.1" fill="grey"/><circle cx="5.0" cy="23.0" r="0.1" fill="grey"/><circle cx="8.0" cy="23.0" r="0.1" fill="grey"/><circle cx="11.0" cy="23.0" r="0.1" fill="grey"/><circle cx="14.0" cy="23.0" r="0.1" fill="grey"/><circle cx="17.0" cy="23.0" r="0.1" fill="grey"/><circle cx="20.0" cy="23.0" r="0.1" fill="grey"/><circle cx="23.0" cy="23.0" r="0.1" fill="grey"/><circle cx="26.0" cy="23.0" r="0.1" fill="grey"/><circle cx="29.0" cy="23.0" r="0.1" fill="grey"/><circle cx="32.0" cy="23.0" r="0.1" fill="grey"/><circle cx="35.0" cy="23.0" r="0.1" fill="grey"/><circle cx="38.0" cy="23.0" r="0.1" fill="grey"/><circle cx="41.0" cy="23.0" r="0.1" fill="grey"/><circle cx="44.0" cy="23.0" r="0.1" fill="grey"/><path d="M 47.0 23.0 L 46.71 23.027" stroke-width="0.1" stroke="Black" marker-end="url(#Arrowtip)" /><path d="M 50.0 23.0 L 50.098 23.134" stroke-width="0.1" stroke="Black" marker-end="url(#Arrowtip)" /><path d="M 53.0 23.0 L 53.323 23.296" stroke-width="0.1" stroke="Black" marker-end="url(#Arrowtip)" /><path d="M 56.0 23.0 L 56.387 23.553" stroke-width="0.1" stroke="Black" marker-end="url(#Arrowtip)" /><path d="M 59.0 23.0 L 59.373 23.835" stroke-width="0.1" stroke="Black" marker-end="url(#Arrowtip)" /><path d="M 62.0 23.0 L 62.317 24.065" stroke-width="0.1" stroke="Black" marker-end="url(#Arrowtip)" /><path d="M 65.0 23.0 L 65.294 24.226" stroke-width="0.1" stroke="Black" marker-end="url(#Arrowtip)" /><path d="M 68.0 23.0 L 68.334 24.343" stroke-width="0.1" stroke="Black" marker-end="url(#Arrowtip)" /><path d="M 71.0 23.0 L 71.517 24.403" stroke-width="0.1" stroke="Black" marker-end="url(#Arrowtip)" /><path d="M 74.0 23.0 L 74.595 24.402" stroke-width="0.1" stroke="Black" marker-end="url(#Arrowtip)" /><circle cx="77.0" cy="23.0" r="0.1" fill="grey"/><circle cx="80.0" cy="23.0" r="0.1" fill="grey"/><circle cx="83.0" cy="23.0" r="0.1" fill="grey"/><circle cx="86.0" cy="23.0" r="0.1" fill="grey"/><circle cx="89.0" cy="23.0" r="0.1" fill="grey"/><circle cx="2.0" cy="26.0" r="0.1" fill="grey"/><circle cx="5.0" cy="26.0" r="0.1" fill="grey"/><circle cx="8.0" cy="26.0" r="0.1" fill="grey"/><circle cx="11.0" cy="26.0" r="0.1" fill="grey"/><circle cx="14.0" cy="26.0" r="0.1" fill="grey"/><circle cx="17.0" cy="26.0" r="0.1" fill="grey"/><circle cx="20.0" cy="26.0" r="0.1" fill="grey"/><circle cx="23.0" cy="26.0" r="0.1" fill="grey"/><circle cx="26.0" cy="26.0" r="0.1" fill="grey"/><circle cx="29.0" cy="26.0" r="0.1" fill="grey"/><circle cx="32.0" cy="26.0" r="0.1" fill="grey"/><circle cx="35.0" cy="26.0" r="0.1" fill="grey"/><circle cx="38.0" cy="26.0" r="0.1" fill="grey"/><circle cx="41.0" cy="26.0" r="0.1" fill="grey"/><circle cx="44.0" cy="26.0" r="0.1" fill="grey"/><circle cx="47.0" cy="26.0" r="0.1" fill="grey"/><circle cx="50.0" cy="26.0" r="0.1" fill="grey"/><path d="M 53.0 26.0 L 52.78 26.195" stroke-width="0.1" stroke="Black" marker-end="url(#Arrowtip)" /><path d="M 56.0 26.0 L 55.89 26.487" stroke-width="0.1" stroke="Black" marker-end="url(#Arrowtip)" /><path d="M 59.0 26.0 L 58.96 26.74" stroke-width="0.1" stroke="Black" marker-end="url(#Arrowtip)" /><path d="M 62.0 26.0 L 62.02 26.9" stroke-width="0.1" stroke="Black" marker-end="url(#Arrowtip)" /><path d="M 65.0 26.0 L 65.156 27.006" stroke-width="0.1" stroke="Black" marker-end="url(#Arrowtip)" /><path d="M 68.0 26.0 L 68.286 27.048000000000002" stroke-width="0.1" stroke="Black" marker-end="url(#Arrowtip)" /><path d="M 71.0 26.0 L 71.328 26.965" stroke-width="0.1" stroke="Black" marker-end="url(#Arrowtip)" /><path d="M 74.0 26.0 L 74.258 26.97" stroke-width="0.1" stroke="Black" marker-end="url(#Arrowtip)" /><path d="M 77.0 26.0 L 77.202 26.967" stroke-width="0.1" stroke="Black" marker-end="url(#Arrowtip)" /><path d="M 80.0 26.0 L 80.263 26.88" stroke-width="0.1" stroke="Black" marker-end="url(#Arrowtip)" /><path d="M 83.0 26.0 L 83.287 26.86" stroke-width="0.1" stroke="Black" marker-end="url(#Arrowtip)" /><circle cx="86.0" cy="26.0" r="0.1" fill="grey"/><circle cx="89.0" cy="26.0" r="0.1" fill="grey"/><circle cx="2.0" cy="29.0" r="0.1" fill="grey"/><circle cx="5.0" cy="29.0" r="0.1" fill="grey"/><circle cx="8.0" cy="29.0" r="0.1" fill="grey"/><circle cx="11.0" cy="29.0" r="0.1" fill="grey"/><circle cx="14.0" cy="29.0" r="0.1" fill="grey"/><circle cx="17.0" cy="29.0" r="0.1" fill="grey"/><circle cx="20.0" cy="29.0" r="0.1" fill="grey"/><circle cx="23.0" cy="29.0" r="0.1" fill="grey"/><circle cx="26.0" cy="29.0" r="0.1" fill="grey"/><circle cx="29.0" cy="29.0" r="0.1" fill="grey"/><circle cx="32.0" cy="29.0" r="0.1" fill="grey"/><circle cx="35.0" cy="29.0" r="0.1" fill="grey"/><circle cx="38.0" cy="29.0" r="0.1" fill="grey"/><circle cx="41.0" cy="29.0" r="0.1" fill="grey"/><circle cx="44.0" cy="29.0" r="0.1" fill="grey"/><circle cx="47.0" cy="29.0" r="0.1" fill="grey"/><circle cx="50.0" cy="29.0" r="0.1" fill="grey"/><circle cx="53.0" cy="29.0" r="0.1" fill="grey"/><path d="M 56.0 29.0 L 55.49 29.015" stroke-width="0.1" stroke="Black" marker-end="url(#Arrowtip)" /><path d="M 59.0 29.0 L 58.7 29.147" stroke-width="0.1" stroke="Black" marker-end="url(#Arrowtip)" /><path d="M 62.0 29.0 L 61.88 29.222" stroke-width="0.1" stroke="Black" marker-end="url(#Arrowtip)" /><path d="M 65.0 29.0 L 65.064 29.254" stroke-width="0.1" stroke="Black" marker-end="url(#Arrowtip)" /><path d="M 68.0 29.0 L 68.247 29.262" stroke-width="0.1" stroke="Black" marker-end="url(#Arrowtip)" /><path d="M 71.0 29.0 L 71.38 29.252" stroke-width="0.1" stroke="Black" marker-end="url(#Arrowtip)" /><path d="M 74.0 29.0 L 74.338 29.347" stroke-width="0.1" stroke="Black" marker-end="url(#Arrowtip)" /><path d="M 77.0 29.0 L 77.218 29.372" stroke-width="0.1" stroke="Black" marker-end="url(#Arrowtip)" /><path d="M 80.0 29.0 L 80.038 29.138" stroke-width="0.1" stroke="Black" marker-end="url(#Arrowtip)" /><path d="M 83.0 29.0 L 82.96 29.09" stroke-width="0.1" stroke="Black" marker-end="url(#Arrowtip)" /><path d="M 86.0 29.0 L 86.0 29.097" stroke-width="0.1" stroke="Black" marker-end="url(#Arrowtip)" /><circle cx="89.0" cy="29.0" r="0.1" fill="grey"/><circle cx="2.0" cy="32.0" r="0.1" fill="grey"/><circle cx="5.0" cy="32.0" r="0.1" fill="grey"/><circle cx="8.0" cy="32.0" r="0.1" fill="grey"/><circle cx="11.0" cy="32.0" r="0.1" fill="grey"/><circle cx="14.0" cy="32.0" r="0.1" fill="grey"/><circle cx="17.0" cy="32.0" r="0.1" fill="grey"/><circle cx="20.0" cy="32.0" r="0.1" fill="grey"/><circle cx="23.0" cy="32.0" r="0.1" fill="grey"/><circle cx="26.0" cy="32.0" r="0.1" fill="grey"/><circle cx="29.0" cy="32.0" r="0.1" fill="grey"/><circle cx="32.0" cy="32.0" r="0.1" fill="grey"/><circle cx="35.0" cy="32.0" r="0.1" fill="grey"/><circle cx="38.0" cy="32.0" r="0.1" fill="grey"/><circle cx="41.0" cy="32.0" r="0.1" fill="grey"/><circle cx="44.0" cy="32.0" r="0.1" fill="grey"/><circle cx="47.0" cy="32.0" r="0.1" fill="grey"/><circle cx="50.0" cy="32.0" r="0.1" fill="grey"/><circle cx="53.0" cy="32.0" r="0.1" fill="grey"/><circle cx="56.0" cy="32.0" r="0.1" fill="grey"/><circle cx="59.0" cy="32.0" r="0.1" fill="grey"/><circle cx="62.0" cy="32.0" r="0.1" fill="grey"/><circle cx="65.0" cy="32.0" r="0.1" fill="grey"/><path d="M 68.0 32.0 L 68.182 31.19" stroke-width="0.1" stroke="Black" marker-end="url(#Arrowtip)" /><path d="M 71.0 32.0 L 71.248 31.27" stroke-width="0.1" stroke="Black" marker-end="url(#Arrowtip)" /><path d="M 74.0 32.0 L 74.251 31.49" stroke-width="0.1" stroke="Black" marker-end="url(#Arrowtip)" /><path d="M 77.0 32.0 L 77.255 31.66" stroke-width="0.1" stroke="Black" marker-end="url(#Arrowtip)" /><path d="M 80.0 32.0 L 80.311 31.58" stroke-width="0.1" stroke="Black" marker-end="url(#Arrowtip)" /><circle cx="83.0" cy="32.0" r="0.1" fill="grey"/><circle cx="86.0" cy="32.0" r="0.1" fill="grey"/><circle cx="89.0" cy="32.0" r="0.1" fill="grey"/><circle cx="2.0" cy="35.0" r="0.1" fill="grey"/><circle cx="5.0" cy="35.0" r="0.1" fill="grey"/><circle cx="8.0" cy="35.0" r="0.1" fill="grey"/><circle cx="11.0" cy="35.0" r="0.1" fill="grey"/><circle cx="14.0" cy="35.0" r="0.1" fill="grey"/><circle cx="17.0" cy="35.0" r="0.1" fill="grey"/><circle cx="20.0" cy="35.0" r="0.1" fill="grey"/><circle cx="23.0" cy="35.0" r="0.1" fill="grey"/><circle cx="26.0" cy="35.0" r="0.1" fill="grey"/><circle cx="29.0" cy="35.0" r="0.1" fill="grey"/><circle cx="32.0" cy="35.0" r="0.1" fill="grey"/><circle cx="35.0" cy="35.0" r="0.1" fill="grey"/><circle cx="38.0" cy="35.0" r="0.1" fill="grey"/><circle cx="41.0" cy="35.0" r="0.1" fill="grey"/><circle cx="44.0" cy="35.0" r="0.1" fill="grey"/><circle cx="47.0" cy="35.0" r="0.1" fill="grey"/><circle cx="50.0" cy="35.0" r="0.1" fill="grey"/><circle cx="53.0" cy="35.0" r="0.1" fill="grey"/><circle cx="56.0" cy="35.0" r="0.1" fill="grey"/><circle cx="59.0" cy="35.0" r="0.1" fill="grey"/><circle cx="62.0" cy="35.0" r="0.1" fill="grey"/><circle cx="65.0" cy="35.0" r="0.1" fill="grey"/><circle cx="68.0" cy="35.0" r="0.1" fill="grey"/><circle cx="71.0" cy="35.0" r="0.1" fill="grey"/><circle cx="74.0" cy="35.0" r="0.1" fill="grey"/><circle cx="77.0" cy="35.0" r="0.1" fill="grey"/><circle cx="80.0" cy="35.0" r="0.1" fill="grey"/><circle cx="83.0" cy="35.0" r="0.1" fill="grey"/><circle cx="86.0" cy="35.0" r="0.1" fill="grey"/><circle cx="89.0" cy="35.0" r="0.1" fill="grey"/>  <svg x="5" y="38.0" width="100mm" height="10" viewbox="0 0 500 200">
  <rect x="1" y="1" width="50" height="8"
    fill="white" stroke="black" stroke-width="0.1" />
  <text x="1" y="2.5" font-size="1.4">Starttime: <tspan font-weight="bold">15:00MESZ</tspan></text>
  <text x="1" y="4" font-size="1.4">Endtime: <tspan font-weight="bold">15:00MESZ</tspan> </text>
  <text x="1" y="6.5" font-size="1.4">Start coordinate: <tspan font-weight="bold">Longitude: 9.16°, Latitude: 47.7</tspan></text>
  <text x="1" y="8" font-size="1.4">End coordinate: <tspan font-weight="bold">Longitude: 9.76°, Latitude: 47.48</tspan> </text>
  <text x="32" y="2.5" font-size="1.4">Boat type: -NONE-</text>
  <text x="32" y="4" font-size="1.4">Windfield file time: 15:00MESZ</text>
  <text x="32" y="6.5" font-size="1.4">Decision net resolution: 12x30</text>
  </svg></svg>