<?xml version="1.0" encoding="utf-8"?>
<!-- Generator: Adobe Illustrator 15.0.2, SVG Export Plug-In . SVG Version: 6.00 Build 0)  -->
<!DOCTYPE svg PUBLIC "-//W3C//DTD SVG 1.0//EN" "http://www.w3.org/TR/2001/REC-SVG-20010904/DTD/svg10.dtd">
<svg version="1.0" xmlns="http://www.w3.org/2000/svg" xmlns:xlink="http://www.w3.org/1999/xlink" x="0px" y="0px"
	 width="984.455px" height="491.379px" viewBox="0 0 984.455 491.379" enable-background="new 0 0 984.455 491.379"
	 xml:space="preserve">
<g id="Layer_2">
	<polygon opacity="0.35" fill="#ED1C24" points="242.302,304.608 363.438,321.093 447.623,273.549 568.768,290.038 568.768,184.078 
		447.623,167.585 363.438,215.132 	"/>
	<polygon opacity="0.35" fill="#71BF44" points="568.768,290.041 689.879,306.524 811.023,323.012 811.023,116.383 689.879,99.896 
		568.768,184.078 	"/>
</g>
<g id="Layer_1">
	<line fill="#71BF44" x1="531.804" y1="19.387" x2="617.584" y2="12.376"/>
	<line fill="none" stroke="#71BF44" stroke-width="0.7441" x1="531.804" y1="19.387" x2="617.584" y2="12.376"/>
	<g>
		<defs>
			<polygon id="SVGID_1_" points="620.113,0 674.378,7.386 644.208,24.424 589.944,17.038 			"/>
		</defs>
		<clipPath id="SVGID_2_">
			<use xlink:href="#SVGID_1_"  overflow="visible"/>
		</clipPath>
		<g clip-path="url(#SVGID_2_)">
			<defs>
				<polygon id="SVGID_3_" points="618.359,4.23 667.497,0.218 665.945,16.503 616.792,20.52 				"/>
			</defs>
			<clipPath id="SVGID_4_">
				<use xlink:href="#SVGID_3_"  overflow="visible"/>
			</clipPath>
			<polygon clip-path="url(#SVGID_4_)" fill="#71BF44" points="618.359,4.23 666.731,8.361 616.792,20.52 			"/>
		</g>
	</g>
	<line fill="#71BF44" x1="326.493" y1="50.436" x2="386.229" y2="42.843"/>
	<line fill="none" stroke="#71BF44" stroke-width="0.7441" x1="326.493" y1="50.436" x2="386.229" y2="42.843"/>
	<g>
		<defs>
			<polygon id="SVGID_5_" points="392.293,29.781 441.129,36.427 407.186,55.597 358.347,48.951 			"/>
		</defs>
		<clipPath id="SVGID_6_">
			<use xlink:href="#SVGID_5_"  overflow="visible"/>
		</clipPath>
		<g clip-path="url(#SVGID_6_)">
			<defs>
				<polygon id="SVGID_7_" points="383.649,35.051 432.546,28.827 437.768,44.403 388.875,50.622 				"/>
			</defs>
			<clipPath id="SVGID_8_">
				<use xlink:href="#SVGID_7_"  overflow="visible"/>
			</clipPath>
			<polygon clip-path="url(#SVGID_8_)" fill="#71BF44" points="383.649,35.051 435.144,36.627 388.854,50.633 			"/>
		</g>
	</g>
	<line fill="#71BF44" x1="447.623" y1="66.92" x2="491.219" y2="57.134"/>
	<line fill="none" stroke="#71BF44" stroke-width="0.7441" x1="447.623" y1="66.92" x2="491.219" y2="57.134"/>
	<g>
		<defs>
			<polygon id="SVGID_9_" points="493.733,40.947 537.149,46.853 503.196,66.025 459.792,60.114 			"/>
		</defs>
		<clipPath id="SVGID_10_">
			<use xlink:href="#SVGID_9_"  overflow="visible"/>
		</clipPath>
		<g clip-path="url(#SVGID_10_)">
			<defs>
				<polygon id="SVGID_11_" points="482.02,50.49 527.618,40.248 545.996,53.533 500.398,63.774 				"/>
			</defs>
			<clipPath id="SVGID_12_">
				<use xlink:href="#SVGID_11_"  overflow="visible"/>
			</clipPath>
			<polygon clip-path="url(#SVGID_12_)" fill="#71BF44" points="482.02,50.49 536.833,46.884 500.439,63.765 			"/>
		</g>
	</g>
	<line fill="#71BF44" x1="568.768" y1="83.412" x2="601.27" y2="74.073"/>
	<line fill="none" stroke="#71BF44" stroke-width="0.7441" x1="568.768" y1="83.412" x2="601.27" y2="74.073"/>
	<g>
		<defs>
			<polygon id="SVGID_13_" points="607.686,56.456 651.095,62.362 617.153,81.532 573.744,75.623 			"/>
		</defs>
		<clipPath id="SVGID_14_">
			<use xlink:href="#SVGID_13_"  overflow="visible"/>
		</clipPath>
		<g clip-path="url(#SVGID_14_)">
			<defs>
				<polygon id="SVGID_15_" points="588.728,68.289 631.005,56.151 656.099,67.723 613.827,79.86 				"/>
			</defs>
			<clipPath id="SVGID_16_">
				<use xlink:href="#SVGID_15_"  overflow="visible"/>
			</clipPath>
			<polygon clip-path="url(#SVGID_16_)" fill="#71BF44" points="588.728,68.289 643.541,61.938 613.827,79.86 			"/>
		</g>
	</g>
	<line fill="#71BF44" x1="689.879" y1="99.896" x2="740.755" y2="95.023"/>
	<line fill="none" stroke="#71BF44" stroke-width="0.7441" x1="689.879" y1="99.896" x2="740.755" y2="95.023"/>
	<g>
		<defs>
			<polygon id="SVGID_17_" points="742.883,82.786 791.724,89.436 761.555,106.47 712.707,99.825 			"/>
		</defs>
		<clipPath id="SVGID_18_">
			<use xlink:href="#SVGID_17_"  overflow="visible"/>
		</clipPath>
		<g clip-path="url(#SVGID_18_)">
			<defs>
				<polygon id="SVGID_19_" points="740.476,86.981 789.654,82.266 790.209,98.365 741.04,103.082 				"/>
			</defs>
			<clipPath id="SVGID_20_">
				<use xlink:href="#SVGID_19_"  overflow="visible"/>
			</clipPath>
			<polygon clip-path="url(#SVGID_20_)" fill="#71BF44" points="740.476,86.981 789.918,90.314 741.029,103.07 			"/>
		</g>
	</g>
	<line fill="#71BF44" x1="811.023" y1="116.383" x2="871.9" y2="118.188"/>
	<line fill="none" stroke="#71BF44" stroke-width="0.7441" x1="811.023" y1="116.383" x2="871.9" y2="118.188"/>
	<g>
		<defs>
			<polygon id="SVGID_21_" points="878.078,109.117 926.91,115.762 896.74,132.801 847.908,126.155 			"/>
		</defs>
		<clipPath id="SVGID_22_">
			<use xlink:href="#SVGID_21_"  overflow="visible"/>
		</clipPath>
		<g clip-path="url(#SVGID_22_)">
			<defs>
				<polygon id="SVGID_23_" points="880.447,109.831 926.537,111.194 909.463,127.906 863.363,126.548 				"/>
			</defs>
			<clipPath id="SVGID_24_">
				<use xlink:href="#SVGID_23_"  overflow="visible"/>
			</clipPath>
			<polygon clip-path="url(#SVGID_24_)" fill="#71BF44" points="880.447,109.831 918.026,119.554 863.363,126.548 			"/>
		</g>
	</g>
	<line fill="#71BF44" x1="242.302" y1="97.979" x2="292.471" y2="94.591"/>
	<line fill="none" stroke="#71BF44" stroke-width="0.7441" x1="242.302" y1="97.979" x2="292.471" y2="94.591"/>
	<g>
		<defs>
			<polygon id="SVGID_25_" points="298.004,83.024 346.844,89.674 316.675,106.708 267.84,100.059 			"/>
		</defs>
		<clipPath id="SVGID_26_">
			<use xlink:href="#SVGID_25_"  overflow="visible"/>
		</clipPath>
		<g clip-path="url(#SVGID_26_)">
			<defs>
				<polygon id="SVGID_27_" points="294.284,86.359 343.303,83.037 339.668,99.473 290.649,102.792 				"/>
			</defs>
			<clipPath id="SVGID_28_">
				<use xlink:href="#SVGID_27_"  overflow="visible"/>
			</clipPath>
			<polygon clip-path="url(#SVGID_28_)" fill="#71BF44" points="294.284,86.359 341.508,91.259 290.652,102.804 			"/>
		</g>
	</g>
	<line fill="#71BF44" x1="363.438" y1="114.467" x2="377.904" y2="109.549"/>
	<line fill="none" stroke="#71BF44" stroke-width="0.7441" x1="363.438" y1="114.467" x2="377.904" y2="109.549"/>
	<g>
		<defs>
			<polygon id="SVGID_29_" points="386.944,89.843 430.352,95.752 392.639,117.049 349.229,111.141 			"/>
		</defs>
		<clipPath id="SVGID_30_">
			<use xlink:href="#SVGID_29_"  overflow="visible"/>
		</clipPath>
		<g clip-path="url(#SVGID_30_)">
			<defs>
				<polygon id="SVGID_31_" points="363.094,104.473 402.374,91.126 431.966,101.302 392.696,114.643 				"/>
			</defs>
			<clipPath id="SVGID_32_">
				<use xlink:href="#SVGID_31_"  overflow="visible"/>
			</clipPath>
			<polygon clip-path="url(#SVGID_32_)" fill="#71BF44" points="363.094,104.473 417.169,96.216 392.696,114.643 			"/>
		</g>
	</g>
	<line fill="#71BF44" x1="726.832" y1="163.928" x2="720.494" y2="164.385"/>
	<line fill="none" stroke="#71BF44" stroke-width="0.7441" x1="726.832" y1="163.928" x2="720.494" y2="164.385"/>
	<g>
		<defs>
			<polygon id="SVGID_33_" points="696.974,150.543 751.243,157.926 721.068,174.967 666.803,167.58 			"/>
		</defs>
		<clipPath id="SVGID_34_">
			<use xlink:href="#SVGID_33_"  overflow="visible"/>
		</clipPath>
		<g clip-path="url(#SVGID_34_)">
			<defs>
				<polygon id="SVGID_35_" points="719.024,172.584 669.938,176.134 672.909,159.736 721.984,156.19 				"/>
			</defs>
			<clipPath id="SVGID_36_">
				<use xlink:href="#SVGID_35_"  overflow="visible"/>
			</clipPath>
			<polygon clip-path="url(#SVGID_36_)" fill="#71BF44" points="719.024,172.584 671.424,167.942 721.984,156.19 			"/>
		</g>
	</g>
	<line fill="#71BF44" x1="847.965" y1="180.414" x2="831.078" y2="189.373"/>
	<line fill="none" stroke="#71BF44" stroke-width="0.7441" x1="847.965" y1="180.414" x2="831.078" y2="189.373"/>
	<g>
		<defs>
			<polygon id="SVGID_37_" points="811.654,184.654 855.068,190.563 821.123,209.73 777.718,203.821 			"/>
		</defs>
		<clipPath id="SVGID_38_">
			<use xlink:href="#SVGID_37_"  overflow="visible"/>
		</clipPath>
		<g clip-path="url(#SVGID_38_)">
			<defs>
				<polygon id="SVGID_39_" points="850.77,192.395 821.299,208.04 781.936,201.99 811.396,186.344 				"/>
			</defs>
			<clipPath id="SVGID_40_">
				<use xlink:href="#SVGID_39_"  overflow="visible"/>
			</clipPath>
			<polygon clip-path="url(#SVGID_40_)" fill="#71BF44" points="850.77,192.395 801.648,205.014 811.426,186.344 			"/>
		</g>
	</g>
	<polyline fill="none" points="942.649,302.277 905.944,294.914 938.655,279.848 	"/>
	<polyline fill="none" points="950.514,303.989 901.671,297.341 935.623,278.174 984.455,284.82 	"/>
	<polyline fill="none" points="957.758,429.197 927.593,446.231 878.75,439.587 908.925,422.549 957.758,429.197 	"/>
	<line fill="#ED1F24" x1="410.67" y1="103.565" x2="482.082" y2="95.38"/>
	<line fill="none" stroke="#ED1F24" stroke-width="0.7441" x1="410.67" y1="103.565" x2="482.082" y2="95.38"/>
	<g>
		<defs>
			<polygon id="SVGID_41_" points="484.451,82.199 533.294,88.851 499.354,108.018 450.511,101.368 			"/>
		</defs>
		<clipPath id="SVGID_42_">
			<use xlink:href="#SVGID_41_"  overflow="visible"/>
		</clipPath>
		<g clip-path="url(#SVGID_42_)">
			<defs>
				<polygon id="SVGID_43_" points="480.41,87.486 529.481,81.868 532.817,97.673 483.748,103.294 				"/>
			</defs>
			<clipPath id="SVGID_44_">
				<use xlink:href="#SVGID_43_"  overflow="visible"/>
			</clipPath>
			<polygon clip-path="url(#SVGID_44_)" fill="#ED1F24" points="480.41,87.486 531.142,89.764 483.748,103.294 			"/>
		</g>
	</g>
	<line fill="#ED1F24" x1="531.804" y1="120.052" x2="617.584" y2="113.041"/>
	<line fill="none" stroke="#ED1F24" stroke-width="0.7441" x1="531.804" y1="120.052" x2="617.584" y2="113.041"/>
	<g>
		<defs>
			<polygon id="SVGID_45_" points="620.113,100.665 674.378,108.051 644.208,125.089 589.944,117.704 			"/>
		</defs>
		<clipPath id="SVGID_46_">
			<use xlink:href="#SVGID_45_"  overflow="visible"/>
		</clipPath>
		<g clip-path="url(#SVGID_46_)">
			<defs>
				<polygon id="SVGID_47_" points="618.359,104.895 667.497,100.882 665.945,117.168 616.792,121.185 				"/>
			</defs>
			<clipPath id="SVGID_48_">
				<use xlink:href="#SVGID_47_"  overflow="visible"/>
			</clipPath>
			<polygon clip-path="url(#SVGID_48_)" fill="#ED1F24" points="618.359,104.895 666.731,109.026 616.792,121.185 			"/>
		</g>
	</g>
	<line fill="#ED1F24" x1="326.493" y1="151.101" x2="386.229" y2="143.509"/>
	<line fill="none" stroke="#ED1F24" stroke-width="0.7441" x1="326.493" y1="151.101" x2="386.229" y2="143.509"/>
	<g>
		<defs>
			<polygon id="SVGID_49_" points="392.293,130.446 441.129,137.093 407.186,156.262 358.347,149.615 			"/>
		</defs>
		<clipPath id="SVGID_50_">
			<use xlink:href="#SVGID_49_"  overflow="visible"/>
		</clipPath>
		<g clip-path="url(#SVGID_50_)">
			<defs>
				<polygon id="SVGID_51_" points="383.649,135.717 432.546,129.491 437.768,145.068 388.875,151.287 				"/>
			</defs>
			<clipPath id="SVGID_52_">
				<use xlink:href="#SVGID_51_"  overflow="visible"/>
			</clipPath>
			<polygon clip-path="url(#SVGID_52_)" fill="#ED1F24" points="383.649,135.717 435.144,137.292 388.854,151.298 			"/>
		</g>
	</g>
	<line fill="#ED1F24" x1="447.623" y1="167.585" x2="491.219" y2="157.798"/>
	<line fill="none" stroke="#ED1F24" stroke-width="0.7441" x1="447.623" y1="167.585" x2="491.219" y2="157.798"/>
	<g>
		<defs>
			<polygon id="SVGID_53_" points="493.733,141.611 537.149,147.518 503.196,166.69 459.792,160.778 			"/>
		</defs>
		<clipPath id="SVGID_54_">
			<use xlink:href="#SVGID_53_"  overflow="visible"/>
		</clipPath>
		<g clip-path="url(#SVGID_54_)">
			<defs>
				<polygon id="SVGID_55_" points="482.02,151.155 527.618,140.914 545.996,154.198 500.398,164.439 				"/>
			</defs>
			<clipPath id="SVGID_56_">
				<use xlink:href="#SVGID_55_"  overflow="visible"/>
			</clipPath>
			<polygon clip-path="url(#SVGID_56_)" fill="#ED1F24" points="482.02,151.155 536.833,147.549 500.439,164.43 			"/>
		</g>
	</g>
	<line fill="#ED1F24" x1="568.768" y1="184.078" x2="601.27" y2="174.738"/>
	<line fill="none" stroke="#B77677" stroke-width="0.7441" x1="568.768" y1="184.078" x2="601.27" y2="174.738"/>
	<g>
		<defs>
			<polygon id="SVGID_57_" points="607.686,157.121 651.095,163.027 617.153,182.197 573.744,176.288 			"/>
		</defs>
		<clipPath id="SVGID_58_">
			<use xlink:href="#SVGID_57_"  overflow="visible"/>
		</clipPath>
		<g clip-path="url(#SVGID_58_)">
			<defs>
				<polygon id="SVGID_59_" points="588.728,168.954 631.005,156.816 656.099,168.388 613.827,180.526 				"/>
			</defs>
			<clipPath id="SVGID_60_">
				<use xlink:href="#SVGID_59_"  overflow="visible"/>
			</clipPath>
			<polygon clip-path="url(#SVGID_60_)" fill="#B77677" points="588.728,168.954 643.541,162.603 613.827,180.526 			"/>
		</g>
	</g>
	<line fill="#ED1F24" x1="689.879" y1="200.562" x2="740.755" y2="195.688"/>
	<line fill="none" stroke="#B77677" stroke-width="0.7441" x1="689.879" y1="200.562" x2="740.755" y2="195.688"/>
	<g>
		<defs>
			<polygon id="SVGID_61_" points="742.883,183.452 791.724,190.1 761.555,207.136 712.707,200.489 			"/>
		</defs>
		<clipPath id="SVGID_62_">
			<use xlink:href="#SVGID_61_"  overflow="visible"/>
		</clipPath>
		<g clip-path="url(#SVGID_62_)">
			<defs>
				<polygon id="SVGID_63_" points="740.476,187.647 789.654,182.931 790.209,199.031 741.04,203.747 				"/>
			</defs>
			<clipPath id="SVGID_64_">
				<use xlink:href="#SVGID_63_"  overflow="visible"/>
			</clipPath>
			<polygon clip-path="url(#SVGID_64_)" fill="#B77677" points="740.476,187.647 789.918,190.979 741.029,203.735 			"/>
		</g>
	</g>
	<line fill="#ED1F24" x1="811.023" y1="217.049" x2="871.9" y2="218.853"/>
	<line fill="none" stroke="#ED1F24" stroke-width="0.7441" x1="811.023" y1="217.049" x2="871.9" y2="218.853"/>
	<g>
		<defs>
			<polygon id="SVGID_65_" points="878.078,209.782 926.91,216.428 896.74,233.466 847.908,226.819 			"/>
		</defs>
		<clipPath id="SVGID_66_">
			<use xlink:href="#SVGID_65_"  overflow="visible"/>
		</clipPath>
		<g clip-path="url(#SVGID_66_)">
			<defs>
				<polygon id="SVGID_67_" points="880.447,210.496 926.537,211.858 909.463,228.571 863.363,227.214 				"/>
			</defs>
			<clipPath id="SVGID_68_">
				<use xlink:href="#SVGID_67_"  overflow="visible"/>
			</clipPath>
			<polygon clip-path="url(#SVGID_68_)" fill="#ED1F24" points="880.447,210.496 918.026,220.218 863.363,227.214 			"/>
		</g>
	</g>
	<line fill="#ED1F24" x1="0.05" y1="165.671" x2="106.974" y2="162.333"/>
	<line fill="none" stroke="#ED1F24" stroke-width="0.7441" x1="0.05" y1="165.671" x2="106.974" y2="162.333"/>
	<g>
		<defs>
			<polygon id="SVGID_69_" points="110.207,152.839 159.042,159.488 128.869,176.526 80.03,169.882 			"/>
		</defs>
		<clipPath id="SVGID_70_">
			<use xlink:href="#SVGID_69_"  overflow="visible"/>
		</clipPath>
		<g clip-path="url(#SVGID_70_)">
			<defs>
				<polygon id="SVGID_71_" points="111.449,153.98 159.799,152.47 150.841,169.171 102.49,170.685 				"/>
			</defs>
			<clipPath id="SVGID_72_">
				<use xlink:href="#SVGID_71_"  overflow="visible"/>
			</clipPath>
			<polygon clip-path="url(#SVGID_72_)" fill="#ED1F24" points="111.449,153.98 155.318,160.818 102.49,170.685 			"/>
		</g>
	</g>
	<line fill="#ED1F24" x1="121.182" y1="182.16" x2="222.04" y2="176.219"/>
	<line fill="none" stroke="#ED1F24" stroke-width="0.7441" x1="121.182" y1="182.16" x2="222.04" y2="176.219"/>
	<g>
		<defs>
			<polygon id="SVGID_73_" points="222.5,165.485 276.766,172.87 246.596,189.906 192.331,182.517 			"/>
		</defs>
		<clipPath id="SVGID_74_">
			<use xlink:href="#SVGID_73_"  overflow="visible"/>
		</clipPath>
		<g clip-path="url(#SVGID_74_)">
			<defs>
				<polygon id="SVGID_75_" points="224.514,167.956 273.441,165.078 268.477,181.6 219.56,184.48 				"/>
			</defs>
			<clipPath id="SVGID_76_">
				<use xlink:href="#SVGID_75_"  overflow="visible"/>
			</clipPath>
			<polygon clip-path="url(#SVGID_76_)" fill="#ED1F24" points="224.514,167.956 270.957,173.341 219.56,184.48 			"/>
		</g>
	</g>
	<line fill="#ED1F24" x1="242.302" y1="198.646" x2="292.471" y2="195.256"/>
	<line fill="none" stroke="#ED1F24" stroke-width="0.7441" x1="242.302" y1="198.646" x2="292.471" y2="195.256"/>
	<g>
		<defs>
			<polygon id="SVGID_77_" points="298.004,183.689 346.844,190.338 316.675,207.373 267.84,200.725 			"/>
		</defs>
		<clipPath id="SVGID_78_">
			<use xlink:href="#SVGID_77_"  overflow="visible"/>
		</clipPath>
		<g clip-path="url(#SVGID_78_)">
			<defs>
				<polygon id="SVGID_79_" points="294.284,187.023 343.303,183.702 339.668,200.138 290.649,203.457 				"/>
			</defs>
			<clipPath id="SVGID_80_">
				<use xlink:href="#SVGID_79_"  overflow="visible"/>
			</clipPath>
			<polygon clip-path="url(#SVGID_80_)" fill="#ED1F24" points="294.284,187.023 341.508,191.925 290.652,203.47 			"/>
		</g>
	</g>
	<line fill="#ED1F24" x1="363.438" y1="215.132" x2="377.904" y2="210.214"/>
	<line fill="none" stroke="#ED1F24" stroke-width="0.7441" x1="363.438" y1="215.132" x2="377.904" y2="210.214"/>
	<g>
		<defs>
			<polygon id="SVGID_81_" points="386.944,190.509 430.352,196.417 392.639,217.713 349.229,211.805 			"/>
		</defs>
		<clipPath id="SVGID_82_">
			<use xlink:href="#SVGID_81_"  overflow="visible"/>
		</clipPath>
		<g clip-path="url(#SVGID_82_)">
			<defs>
				<polygon id="SVGID_83_" points="363.094,205.138 402.374,191.792 431.966,201.967 392.696,215.308 				"/>
			</defs>
			<clipPath id="SVGID_84_">
				<use xlink:href="#SVGID_83_"  overflow="visible"/>
			</clipPath>
			<polygon clip-path="url(#SVGID_84_)" fill="#B77677" points="363.094,205.138 417.169,196.881 392.696,215.308 			"/>
		</g>
	</g>
	<line fill="#ED1F24" x1="726.832" y1="264.593" x2="720.494" y2="265.051"/>
	<line fill="none" stroke="#B77677" stroke-width="0.7441" x1="726.832" y1="264.593" x2="720.494" y2="265.051"/>
	<g>
		<defs>
			<polygon id="SVGID_85_" points="696.974,251.207 751.243,258.59 721.068,275.631 666.803,268.245 			"/>
		</defs>
		<clipPath id="SVGID_86_">
			<use xlink:href="#SVGID_85_"  overflow="visible"/>
		</clipPath>
		<g clip-path="url(#SVGID_86_)">
			<defs>
				<polygon id="SVGID_87_" points="719.024,273.249 669.938,276.798 672.909,260.401 721.984,256.854 				"/>
			</defs>
			<clipPath id="SVGID_88_">
				<use xlink:href="#SVGID_87_"  overflow="visible"/>
			</clipPath>
			<polygon clip-path="url(#SVGID_88_)" fill="#B77677" points="719.024,273.249 671.424,268.607 721.984,256.854 			"/>
		</g>
	</g>
	<line fill="#ED1F24" x1="847.965" y1="281.079" x2="831.078" y2="290.038"/>
	<line fill="none" stroke="#ED1F24" stroke-width="0.7441" x1="847.965" y1="281.079" x2="831.078" y2="290.038"/>
	<g>
		<defs>
			<polygon id="SVGID_89_" points="811.654,285.319 855.068,291.229 821.123,310.396 777.718,304.486 			"/>
		</defs>
		<clipPath id="SVGID_90_">
			<use xlink:href="#SVGID_89_"  overflow="visible"/>
		</clipPath>
		<g clip-path="url(#SVGID_90_)">
			<defs>
				<polygon id="SVGID_91_" points="850.77,293.06 821.299,308.706 781.936,302.654 811.396,287.009 				"/>
			</defs>
			<clipPath id="SVGID_92_">
				<use xlink:href="#SVGID_91_"  overflow="visible"/>
			</clipPath>
			<polygon clip-path="url(#SVGID_92_)" fill="#ED1F24" points="850.77,293.06 801.648,305.68 811.426,287.009 			"/>
		</g>
	</g>
	<line fill="#ED1F24" x1="158.108" y1="246.188" x2="208.182" y2="235.887"/>
	<line fill="none" stroke="#ED1F24" stroke-width="0.7441" x1="158.108" y1="246.188" x2="208.182" y2="235.887"/>
	<g>
		<defs>
			<polygon id="SVGID_93_" points="213.848,219.81 257.254,225.715 223.315,244.884 179.903,238.979 			"/>
		</defs>
		<clipPath id="SVGID_94_">
			<use xlink:href="#SVGID_93_"  overflow="visible"/>
		</clipPath>
		<g clip-path="url(#SVGID_94_)">
			<defs>
				<polygon id="SVGID_95_" points="200.142,229.004 246.619,219.438 262.697,233.223 216.225,242.784 				"/>
			</defs>
			<clipPath id="SVGID_96_">
				<use xlink:href="#SVGID_95_"  overflow="visible"/>
			</clipPath>
			<polygon clip-path="url(#SVGID_96_)" fill="#ED1F24" points="200.142,229.004 254.642,226.331 216.207,242.781 			"/>
		</g>
	</g>
	<line fill="#ED1F24" x1="884.887" y1="345.109" x2="839.501" y2="361.977"/>
	<line fill="none" stroke="#ED1F24" stroke-width="0.7441" x1="884.887" y1="345.109" x2="839.501" y2="361.977"/>
	<g>
		<defs>
			<polygon id="SVGID_97_" points="822.127,355.463 865.541,361.372 831.604,380.541 788.186,374.632 			"/>
		</defs>
		<clipPath id="SVGID_98_">
			<use xlink:href="#SVGID_97_"  overflow="visible"/>
		</clipPath>
		<g clip-path="url(#SVGID_98_)">
			<defs>
				<polygon id="SVGID_99_" points="855.416,366.664 817.951,380.583 786.085,371.213 823.544,357.295 				"/>
			</defs>
			<clipPath id="SVGID_100_">
				<use xlink:href="#SVGID_99_"  overflow="visible"/>
			</clipPath>
			<polygon clip-path="url(#SVGID_100_)" fill="#ED1F24" points="855.416,366.664 802.041,375.9 823.56,357.3 			"/>
		</g>
	</g>
	<path fill="#818181" d="M599.429,424.257c-1.543,0.874-4.595,1.329-6.825,1.029c-2.25-0.305-2.795-1.257-1.247-2.133
		c1.547-0.869,4.59-1.334,6.851-1.028C600.432,422.43,600.98,423.382,599.429,424.257z"/>
	<line fill="#4158A7" x1="410.67" y1="209.528" x2="482.082" y2="201.343"/>
	<line fill="none" stroke="#737A91" stroke-width="0.7441" x1="410.67" y1="209.528" x2="482.082" y2="201.343"/>
	<g>
		<defs>
			<polygon id="SVGID_101_" points="484.451,188.163 533.294,194.813 499.354,213.98 450.511,207.332 			"/>
		</defs>
		<clipPath id="SVGID_102_">
			<use xlink:href="#SVGID_101_"  overflow="visible"/>
		</clipPath>
		<g clip-path="url(#SVGID_102_)">
			<defs>
				<polygon id="SVGID_103_" points="480.41,193.45 529.481,187.831 532.817,203.636 483.748,209.257 				"/>
			</defs>
			<clipPath id="SVGID_104_">
				<use xlink:href="#SVGID_103_"  overflow="visible"/>
			</clipPath>
			<polygon clip-path="url(#SVGID_104_)" fill="#737A91" points="480.41,193.45 531.142,195.727 483.748,209.257 			"/>
		</g>
	</g>
	<line fill="#4158A7" x1="531.804" y1="226.015" x2="617.584" y2="219.005"/>
	<line fill="none" stroke="#737A91" stroke-width="0.7441" x1="531.804" y1="226.015" x2="617.584" y2="219.005"/>
	<g>
		<defs>
			<polygon id="SVGID_105_" points="620.113,206.628 674.378,214.014 644.208,231.052 589.944,223.667 			"/>
		</defs>
		<clipPath id="SVGID_106_">
			<use xlink:href="#SVGID_105_"  overflow="visible"/>
		</clipPath>
		<g clip-path="url(#SVGID_106_)">
			<defs>
				<polygon id="SVGID_107_" points="618.359,210.858 667.497,206.845 665.945,223.131 616.792,227.147 				"/>
			</defs>
			<clipPath id="SVGID_108_">
				<use xlink:href="#SVGID_107_"  overflow="visible"/>
			</clipPath>
			<polygon clip-path="url(#SVGID_108_)" fill="#737A91" points="618.359,210.858 666.731,214.989 616.792,227.147 			"/>
		</g>
	</g>
	<line fill="#4158A7" x1="326.493" y1="257.063" x2="386.229" y2="249.472"/>
	<line fill="none" stroke="#737A91" stroke-width="0.7441" x1="326.493" y1="257.063" x2="386.229" y2="249.472"/>
	<g>
		<defs>
			<polygon id="SVGID_109_" points="392.293,236.41 441.129,243.056 407.186,262.225 358.347,255.58 			"/>
		</defs>
		<clipPath id="SVGID_110_">
			<use xlink:href="#SVGID_109_"  overflow="visible"/>
		</clipPath>
		<g clip-path="url(#SVGID_110_)">
			<defs>
				<polygon id="SVGID_111_" points="383.649,241.68 432.546,235.456 437.768,251.031 388.875,257.251 				"/>
			</defs>
			<clipPath id="SVGID_112_">
				<use xlink:href="#SVGID_111_"  overflow="visible"/>
			</clipPath>
			<polygon clip-path="url(#SVGID_112_)" fill="#737A91" points="383.649,241.68 435.144,243.255 388.854,257.261 			"/>
		</g>
	</g>
	<line fill="#4158A7" x1="447.623" y1="273.549" x2="491.219" y2="263.763"/>
	<line fill="none" stroke="#737A91" stroke-width="0.7441" x1="447.623" y1="273.549" x2="491.219" y2="263.763"/>
	<g>
		<defs>
			<polygon id="SVGID_113_" points="493.733,247.576 537.149,253.48 503.196,272.654 459.792,266.743 			"/>
		</defs>
		<clipPath id="SVGID_114_">
			<use xlink:href="#SVGID_113_"  overflow="visible"/>
		</clipPath>
		<g clip-path="url(#SVGID_114_)">
			<defs>
				<polygon id="SVGID_115_" points="482.02,257.118 527.618,246.876 545.996,260.161 500.398,270.402 				"/>
			</defs>
			<clipPath id="SVGID_116_">
				<use xlink:href="#SVGID_115_"  overflow="visible"/>
			</clipPath>
			<polygon clip-path="url(#SVGID_116_)" fill="#737A91" points="482.02,257.118 536.833,253.512 500.439,270.393 			"/>
		</g>
	</g>
	<line fill="#4158A7" x1="568.768" y1="290.041" x2="601.27" y2="280.701"/>
	<line fill="none" stroke="#737A91" stroke-width="0.7441" x1="568.768" y1="290.041" x2="601.27" y2="280.701"/>
	<g>
		<defs>
			<polygon id="SVGID_117_" points="607.686,263.084 651.095,268.99 617.153,288.16 573.744,282.251 			"/>
		</defs>
		<clipPath id="SVGID_118_">
			<use xlink:href="#SVGID_117_"  overflow="visible"/>
		</clipPath>
		<g clip-path="url(#SVGID_118_)">
			<defs>
				<polygon id="SVGID_119_" points="588.728,274.917 631.005,262.779 656.099,274.351 613.827,286.489 				"/>
			</defs>
			<clipPath id="SVGID_120_">
				<use xlink:href="#SVGID_119_"  overflow="visible"/>
			</clipPath>
			<polygon clip-path="url(#SVGID_120_)" fill="#737A91" points="588.728,274.917 643.541,268.566 613.827,286.489 			"/>
		</g>
	</g>
	<line fill="#4158A7" x1="689.879" y1="306.524" x2="740.755" y2="301.651"/>
	<line fill="none" stroke="#737A91" stroke-width="0.7441" x1="689.879" y1="306.524" x2="740.755" y2="301.651"/>
	<g>
		<defs>
			<polygon id="SVGID_121_" points="742.883,289.415 791.724,296.063 761.555,313.099 712.707,306.453 			"/>
		</defs>
		<clipPath id="SVGID_122_">
			<use xlink:href="#SVGID_121_"  overflow="visible"/>
		</clipPath>
		<g clip-path="url(#SVGID_122_)">
			<defs>
				<polygon id="SVGID_123_" points="740.476,293.611 789.654,288.896 790.209,304.994 741.04,309.71 				"/>
			</defs>
			<clipPath id="SVGID_124_">
				<use xlink:href="#SVGID_123_"  overflow="visible"/>
			</clipPath>
			<polygon clip-path="url(#SVGID_124_)" fill="#737A91" points="740.476,293.611 789.918,296.942 741.029,309.698 			"/>
		</g>
	</g>
	<line fill="#4158A7" x1="811.023" y1="323.012" x2="871.9" y2="324.815"/>
	<line fill="none" stroke="#4158A7" stroke-width="0.7441" x1="811.023" y1="323.012" x2="871.9" y2="324.815"/>
	<g>
		<defs>
			<polygon id="SVGID_125_" points="878.078,315.745 926.91,322.392 896.74,339.429 847.908,332.786 			"/>
		</defs>
		<clipPath id="SVGID_126_">
			<use xlink:href="#SVGID_125_"  overflow="visible"/>
		</clipPath>
		<g clip-path="url(#SVGID_126_)">
			<defs>
				<polygon id="SVGID_127_" points="880.447,316.459 926.537,317.821 909.463,334.534 863.363,333.179 				"/>
			</defs>
			<clipPath id="SVGID_128_">
				<use xlink:href="#SVGID_127_"  overflow="visible"/>
			</clipPath>
			<polygon clip-path="url(#SVGID_128_)" fill="#4158A7" points="880.447,316.459 918.026,326.181 863.363,333.179 			"/>
		</g>
	</g>
	<line fill="#4158A7" x1="0.05" y1="271.634" x2="106.974" y2="268.298"/>
	<line fill="none" stroke="#4158A7" stroke-width="0.7441" x1="106.974" y1="268.298" x2="0.05" y2="271.634"/>
	<g>
		<defs>
			<polygon id="SVGID_129_" points="110.207,258.804 159.042,265.451 128.869,282.489 80.03,275.845 			"/>
		</defs>
		<clipPath id="SVGID_130_">
			<use xlink:href="#SVGID_129_"  overflow="visible"/>
		</clipPath>
		<g clip-path="url(#SVGID_130_)">
			<defs>
				<polygon id="SVGID_131_" points="111.449,259.944 159.799,258.433 150.841,275.135 102.49,276.647 				"/>
			</defs>
			<clipPath id="SVGID_132_">
				<use xlink:href="#SVGID_131_"  overflow="visible"/>
			</clipPath>
			<polygon clip-path="url(#SVGID_132_)" fill="#4158A7" points="111.449,259.944 155.318,266.781 102.49,276.647 			"/>
		</g>
	</g>
	<line fill="#4158A7" x1="121.182" y1="288.124" x2="222.04" y2="282.182"/>
	<line fill="none" stroke="#4158A7" stroke-width="0.7441" x1="121.182" y1="288.124" x2="222.04" y2="282.182"/>
	<g>
		<defs>
			<polygon id="SVGID_133_" points="222.5,271.448 276.766,278.833 246.596,295.869 192.331,288.481 			"/>
		</defs>
		<clipPath id="SVGID_134_">
			<use xlink:href="#SVGID_133_"  overflow="visible"/>
		</clipPath>
		<g clip-path="url(#SVGID_134_)">
			<defs>
				<polygon id="SVGID_135_" points="224.514,273.919 273.441,271.042 268.477,287.562 219.56,290.443 				"/>
			</defs>
			<clipPath id="SVGID_136_">
				<use xlink:href="#SVGID_135_"  overflow="visible"/>
			</clipPath>
			<polygon clip-path="url(#SVGID_136_)" fill="#4158A7" points="224.514,273.919 270.957,279.304 219.56,290.443 			"/>
		</g>
	</g>
	<line fill="#4158A7" x1="242.302" y1="304.608" x2="292.471" y2="301.219"/>
	<line fill="none" stroke="#737A91" stroke-width="0.7441" x1="242.302" y1="304.608" x2="292.471" y2="301.219"/>
	<g>
		<defs>
			<polygon id="SVGID_137_" points="298.004,289.652 346.844,296.302 316.675,313.336 267.84,306.688 			"/>
		</defs>
		<clipPath id="SVGID_138_">
			<use xlink:href="#SVGID_137_"  overflow="visible"/>
		</clipPath>
		<g clip-path="url(#SVGID_138_)">
			<defs>
				<polygon id="SVGID_139_" points="294.284,292.987 343.303,289.665 339.668,306.101 290.649,309.42 				"/>
			</defs>
			<clipPath id="SVGID_140_">
				<use xlink:href="#SVGID_139_"  overflow="visible"/>
			</clipPath>
			<polygon clip-path="url(#SVGID_140_)" fill="#737A91" points="294.284,292.987 341.508,297.888 290.652,309.434 			"/>
		</g>
	</g>
	<line fill="#4158A7" x1="363.438" y1="321.095" x2="377.904" y2="316.177"/>
	<line fill="none" stroke="#4158A7" stroke-width="0.7441" x1="363.438" y1="321.095" x2="377.904" y2="316.177"/>
	<g>
		<defs>
			<polygon id="SVGID_141_" points="386.944,296.472 430.352,302.38 392.639,323.676 349.229,317.769 			"/>
		</defs>
		<clipPath id="SVGID_142_">
			<use xlink:href="#SVGID_141_"  overflow="visible"/>
		</clipPath>
		<g clip-path="url(#SVGID_142_)">
			<defs>
				<polygon id="SVGID_143_" points="363.094,311.101 402.374,297.755 431.966,307.93 392.696,321.271 				"/>
			</defs>
			<clipPath id="SVGID_144_">
				<use xlink:href="#SVGID_143_"  overflow="visible"/>
			</clipPath>
			<polygon clip-path="url(#SVGID_144_)" fill="#4158A7" points="363.094,311.101 417.169,302.844 392.696,321.271 			"/>
		</g>
	</g>
	<line fill="#4158A7" x1="726.832" y1="370.556" x2="720.494" y2="371.011"/>
	<line fill="none" stroke="#4158A7" stroke-width="0.7441" x1="726.832" y1="370.556" x2="720.494" y2="371.011"/>
	<g>
		<defs>
			<polygon id="SVGID_145_" points="696.974,357.17 751.243,364.554 721.068,381.598 666.803,374.208 			"/>
		</defs>
		<clipPath id="SVGID_146_">
			<use xlink:href="#SVGID_145_"  overflow="visible"/>
		</clipPath>
		<g clip-path="url(#SVGID_146_)">
			<defs>
				<polygon id="SVGID_147_" points="719.024,379.212 669.938,382.762 672.909,366.364 721.984,362.815 				"/>
			</defs>
			<clipPath id="SVGID_148_">
				<use xlink:href="#SVGID_147_"  overflow="visible"/>
			</clipPath>
			<polygon clip-path="url(#SVGID_148_)" fill="#4158A7" points="719.024,379.212 671.424,374.57 721.984,362.815 			"/>
		</g>
	</g>
	<line fill="#4158A7" x1="847.965" y1="387.04" x2="831.078" y2="396.001"/>
	<line fill="none" stroke="#4158A7" stroke-width="0.7441" x1="847.965" y1="387.04" x2="831.078" y2="396.001"/>
	<g>
		<defs>
			<polygon id="SVGID_149_" points="811.654,391.282 855.068,397.191 821.123,416.356 777.718,410.447 			"/>
		</defs>
		<clipPath id="SVGID_150_">
			<use xlink:href="#SVGID_149_"  overflow="visible"/>
		</clipPath>
		<g clip-path="url(#SVGID_150_)">
			<defs>
				<polygon id="SVGID_151_" points="850.77,399.022 821.299,414.669 781.936,408.616 811.396,392.97 				"/>
			</defs>
			<clipPath id="SVGID_152_">
				<use xlink:href="#SVGID_151_"  overflow="visible"/>
			</clipPath>
			<polygon clip-path="url(#SVGID_152_)" fill="#4158A7" points="850.77,399.022 801.648,411.643 811.426,392.97 			"/>
		</g>
	</g>
	<line fill="#4158A7" x1="158.108" y1="352.151" x2="208.182" y2="341.85"/>
	<line fill="none" stroke="#4158A7" stroke-width="0.7441" x1="208.182" y1="341.85" x2="158.108" y2="352.151"/>
	<g>
		<defs>
			<polygon id="SVGID_153_" points="213.848,325.772 257.254,331.679 223.315,350.849 179.903,344.944 			"/>
		</defs>
		<clipPath id="SVGID_154_">
			<use xlink:href="#SVGID_153_"  overflow="visible"/>
		</clipPath>
		<g clip-path="url(#SVGID_154_)">
			<defs>
				<polygon id="SVGID_155_" points="200.142,334.97 246.619,325.401 262.697,339.186 216.225,348.747 				"/>
			</defs>
			<clipPath id="SVGID_156_">
				<use xlink:href="#SVGID_155_"  overflow="visible"/>
			</clipPath>
			<polygon clip-path="url(#SVGID_156_)" fill="#4158A7" points="200.142,334.97 254.642,332.294 216.207,348.742 			"/>
		</g>
	</g>
	<line fill="#4158A7" x1="642.631" y1="418.104" x2="606.434" y2="421.565"/>
	<line fill="none" stroke="#4158A7" stroke-width="0.7441" x1="642.631" y1="418.104" x2="606.434" y2="421.565"/>
	<g>
		<defs>
			<polygon id="SVGID_157_" points="586.411,408.202 635.247,414.845 601.301,434.015 552.469,427.366 			"/>
		</defs>
		<clipPath id="SVGID_158_">
			<use xlink:href="#SVGID_157_"  overflow="visible"/>
		</clipPath>
		<g clip-path="url(#SVGID_158_)">
			<defs>
				<polygon id="SVGID_159_" points="606.702,429.611 557.539,434.319 557.007,418.229 606.164,413.521 				"/>
			</defs>
			<clipPath id="SVGID_160_">
				<use xlink:href="#SVGID_159_"  overflow="visible"/>
			</clipPath>
			<polygon clip-path="url(#SVGID_160_)" fill="#4158A7" points="606.702,429.611 557.26,426.279 606.164,413.521 			"/>
		</g>
	</g>
	<line fill="#4158A7" x1="763.764" y1="434.589" x2="718.295" y2="445.268"/>
	<line fill="none" stroke="#4158A7" stroke-width="0.7441" x1="763.764" y1="434.589" x2="718.295" y2="445.268"/>
	<g>
		<defs>
			<polygon id="SVGID_161_" points="703.218,437.311 746.623,443.22 712.687,462.383 669.267,456.48 			"/>
		</defs>
		<clipPath id="SVGID_162_">
			<use xlink:href="#SVGID_161_"  overflow="visible"/>
		</clipPath>
		<g clip-path="url(#SVGID_162_)">
			<defs>
				<polygon id="SVGID_163_" points="728.089,451.771 682.987,462.373 663.367,449.365 708.47,438.77 				"/>
			</defs>
			<clipPath id="SVGID_164_">
				<use xlink:href="#SVGID_163_"  overflow="visible"/>
			</clipPath>
			<polygon clip-path="url(#SVGID_164_)" fill="#4158A7" points="728.089,451.771 673.198,455.864 708.496,438.77 			"/>
		</g>
	</g>
	<line fill="#4158A7" x1="679.594" y1="482.128" x2="643.567" y2="481.807"/>
	<line fill="none" stroke="#4158A7" stroke-width="0.7441" x1="679.594" y1="482.128" x2="643.567" y2="481.807"/>
	<g>
		<defs>
			<polygon id="SVGID_165_" points="615.736,467.691 664.574,474.341 634.409,491.379 585.566,484.735 			"/>
		</defs>
		<clipPath id="SVGID_166_">
			<use xlink:href="#SVGID_165_"  overflow="visible"/>
		</clipPath>
		<g clip-path="url(#SVGID_166_)">
			<defs>
				<polygon id="SVGID_167_" points="636.339,490.198 589.344,489.774 603.805,473.005 650.805,473.425 				"/>
			</defs>
			<clipPath id="SVGID_168_">
				<use xlink:href="#SVGID_167_"  overflow="visible"/>
			</clipPath>
			<polygon clip-path="url(#SVGID_168_)" fill="#4158A7" points="636.339,490.198 596.572,481.383 650.785,473.425 			"/>
		</g>
	</g>
	<polyline fill="none" stroke="#FAED23" stroke-width="0.7441" points="0.05,271.634 121.182,288.124 242.302,304.608 
		363.438,215.132 447.623,167.585 568.768,184.078 689.879,99.896 811.023,116.383 	"/>
	<polyline fill="none" stroke="#9FA1A4" stroke-miterlimit="10" points="242.302,304.608 363.438,321.095 447.623,273.549 
		568.768,290.041 689.879,306.524 811.023,323.012 	"/>
	<g>
		<g>
			<path fill="#C49A6C" d="M791.724,347.009c-24.219,0-48.437,0-72.655,0c-11.018,0-22.036,0-33.055,0
				c-1.616,0-1.132,0.672-1.132-0.771c0-2.075,0-4.149,0-6.225c0-54.656,0-109.313,0-163.971c0-26.932,0-53.863,0-80.796
				c0-6.429,0-12.857,0-19.287c0-0.526,0-1.053,0-1.579c0-0.527-0.526-0.008,0.136-0.008c3.317,0,6.634,0,9.951,0
				c28.994,0,57.987,0,86.981,0c3.156,0,6.313,0,9.47,0c0.484,0,0.004-0.547,0.004,0.008c0,0.59,0,1.18,0,1.77
				c0,6.556,0,13.111,0,19.666c0,59.524,0,119.048,0,178.571c0,24.307,0,48.614,0,72.921c0,0.387,0.6,0.387,0.6,0
				c0-43.873,0-87.747,0-131.62c0-47.045,0-94.091,0-141.136c0-0.16,0-0.319,0-0.479c0-0.163-0.137-0.3-0.3-0.3
				c-35.714,0-71.428,0-107.142,0c-0.163,0-0.3,0.137-0.3,0.3c0,43.873,0,87.747,0,131.62c0,47.046,0,94.091,0,141.136
				c0,0.16,0,0.319,0,0.479c0,0.163,0.137,0.3,0.3,0.3c35.714,0,71.428,0,107.142,0C792.11,347.608,792.11,347.009,791.724,347.009z
				"/>
		</g>
	</g>
</g>
<g id="Layer_2_copy">
	<polygon opacity="0.15" fill="#ED1C24" points="242.302,304.608 363.438,321.093 447.623,273.549 568.768,290.038 568.768,184.078 
		447.623,167.585 363.438,215.132 	"/>
	<polygon opacity="0.15" fill="#71BF44" points="568.768,290.041 689.879,306.524 811.023,323.012 811.023,116.383 689.879,99.896 
		568.768,184.078 	"/>
</g>
<g id="Layer_3">
	<text transform="matrix(1 0 0 1 698.4629 130.4482)" font-family="'MyriadPro-Regular'" font-size="42.3853">a</text>
	<text transform="matrix(1 0 0 1 698.4629 337.4971)" font-family="'MyriadPro-Regular'" font-size="42.3853">a</text>
	<text transform="matrix(1 0 0 1 698.4629 231.0547)" font-family="'MyriadPro-Regular'" font-size="42.3853">a</text>
	<text transform="matrix(1 0 0 1 718.7734 132.2939)" font-family="'MyriadPro-Regular'" font-size="21.1926">x,y,t+2</text>
	<text transform="matrix(1 0 0 1 717.4492 233.4668)" font-family="'MyriadPro-Regular'" font-size="21.1926">x,y,t+1</text>
	<text transform="matrix(1 0 0 1 717.4473 339.4287)" font-family="'MyriadPro-Regular'" font-size="21.1926">x,y,t</text>
</g>
</svg>
